<svg width="22" height="15" viewBox="0 0 22 15" fill="none" xmlns="http://www.w3.org/2000/svg">
<path d="M6.80578 12.8341L6.46924 12.5278L1.88181 8.35289C1.56141 8.0613 1.04032 8.0613 0.719916 8.35289C0.426695 8.61974 0.426695 9.01644 0.719916 9.28329L6.21172 14.2813C6.53212 14.5729 7.06633 14.5729 7.38673 14.2813L7.3869 14.2811L21.2801 1.6491L6.80578 12.8341ZM6.80578 12.8341L7.14232 12.5278M6.80578 12.8341L7.14232 12.5278M7.14232 12.5278L20.1182 0.718694C20.4386 0.427102 20.9597 0.427102 21.2801 0.718693M7.14232 12.5278L21.6166 0.348907L21.2801 0.718693M21.2801 0.718693C21.5732 0.985496 21.5733 1.38209 21.2803 1.64894L21.2801 0.718693Z" fill="#F69323" stroke="#F69323"/>
</svg>
