<svg width="107" height="98" viewBox="0 0 107 98" fill="none" xmlns="http://www.w3.org/2000/svg">
<circle cx="83.1836" cy="29.4474" r="23.4474" fill="#FFC37E"/>
<path d="M92.7042 74.7195C91.4736 73.4893 89.838 72.8119 88.0976 72.8119C88.0968 72.8119 88.0957 72.8119 88.0951 72.8119H87.9439C86.2825 72.8125 84.8092 73.6321 83.9058 74.8877L74.2086 65.1905L72.2352 50.3898C71.3652 43.8659 65.7459 38.946 59.1596 38.946C57.3505 38.946 55.8789 40.4178 55.8789 42.2267V45.6133C55.8789 49.4062 52.7931 52.4924 48.9998 52.4924C45.2067 52.4924 42.1207 49.4064 42.1207 45.6133V42.2267C42.1207 40.4176 40.6489 38.946 38.8354 38.946C32.2535 38.946 26.6342 43.8659 25.7646 50.3898L23.791 65.1905L14.0963 74.8852C13.9395 74.6678 13.7642 74.4615 13.5709 74.2682C12.6315 73.3289 11.3829 72.8119 10.0532 72.8119H10.0523C6.3765 72.8127 3.38635 75.8038 3.38635 79.4794C3.38635 83.0891 6.27046 86.036 9.85512 86.1417C8.98173 87.3693 8.46627 88.868 8.46627 90.4858C8.46647 94.6294 11.8373 98 15.9805 98H82.0195C86.1629 98 89.5335 94.6294 89.5335 90.486C89.5335 88.8682 89.0179 87.3697 88.1449 86.142C91.7291 86.0375 94.6134 83.0788 94.6134 79.4545V79.327C94.6134 77.5864 93.9355 75.95 92.7042 74.7195ZM62.7194 68.7359L63.2668 64.0834L63.7731 66.6148C64.2292 68.8963 65.3403 70.9719 66.9857 72.6175L77.3402 82.972H65.4793L62.9949 73.0336C62.6423 71.6243 62.5496 70.1784 62.7194 68.7359ZM38.8401 42.1209C38.8985 42.1209 38.946 42.1684 38.946 42.2267V45.6133C38.946 51.157 43.4563 55.6673 49 55.6673C54.5437 55.6673 59.054 51.157 59.054 45.6133V42.2267C59.054 42.1684 59.1016 42.1209 59.1642 42.1209C60.3586 42.1209 61.5105 42.3364 62.5822 42.729L59.5662 68.3648C59.3511 70.1904 59.4684 72.0205 59.9144 73.8034L62.2065 82.9718H35.7935L38.0856 73.8034C38.5314 72.0201 38.6487 70.1902 38.434 68.3648L35.418 42.7296C36.4906 42.3366 37.6439 42.1209 38.8401 42.1209ZM34.7333 64.0832L35.2808 68.7357C35.4505 70.1784 35.3579 71.6243 35.0055 73.0336L32.5209 82.972H20.6596L31.0141 72.6175C32.6594 70.9721 33.7704 68.8965 34.2267 66.6148L34.7333 64.0832ZM10.054 82.972C8.12825 82.972 6.56159 81.4053 6.56159 79.4796C6.56159 77.5542 8.12787 75.9876 10.0542 75.9872C10.5346 75.9872 10.9863 76.174 11.3261 76.5137C11.666 76.8535 11.8532 77.3052 11.8532 77.7862C11.8532 78.4284 12.2398 79.007 12.8332 79.2528C13.4266 79.4985 14.1093 79.3628 14.5631 78.9086L26.4163 67.0554C26.6629 66.8089 26.8216 66.4881 26.8675 66.1428L28.9119 50.8094C29.2528 48.252 30.5565 46.0214 32.4246 44.4597L33.534 53.8897L31.1136 65.9919C30.7808 67.6568 29.97 69.1716 28.7695 70.3723L16.17 82.9718H15.9805H10.054V82.972ZM42.3325 94.8252H15.9805C13.5879 94.8252 11.6413 92.8788 11.6413 90.486C11.6413 88.0932 13.5877 86.1468 15.9805 86.1468H27.0928V86.9226C27.0928 89.2719 28.6945 91.2687 30.9877 91.7782L42.3324 94.2994V94.8252H42.3325ZM42.3325 91.0468L31.6766 88.6787C30.847 88.4944 30.2678 87.7722 30.2678 86.9224V86.1468H42.3325V91.0468ZM82.0195 94.8252H45.5076V86.147H82.0197C84.4121 86.1472 86.3585 88.0936 86.3585 90.4862C86.3585 92.8786 84.4121 94.8252 82.0195 94.8252ZM91.4384 79.4545C91.4384 81.394 89.8731 82.972 87.9492 82.972H81.8304L69.2309 70.3723C68.0302 69.1716 67.2194 67.6566 66.8865 65.9919L64.466 53.8895L65.5754 44.4595C67.4433 46.0212 68.7472 48.252 69.0881 50.8096L71.1325 66.143C71.1786 66.4884 71.3371 66.809 71.5836 67.0556L83.4368 78.9088C83.8911 79.3628 84.5736 79.4985 85.167 79.2529C85.7603 79.0072 86.147 78.4284 86.147 77.7864C86.147 76.7945 86.9537 75.9876 87.9458 75.9872H88.097C88.0974 75.9872 88.0978 75.9872 88.0984 75.9872C88.9903 75.9872 89.829 76.3346 90.4599 76.9651C91.0908 77.5959 91.4386 78.4351 91.4386 79.3274V79.4545H91.4384Z" fill="#143A5E"/>
<path d="M55.4816 8.23449C55.6049 7.72439 55.6675 7.20032 55.6675 6.66725C55.6675 2.99111 52.6764 0 49 0C45.3237 0 42.3326 2.99111 42.3326 6.66745C42.3326 7.20089 42.3961 7.72458 42.5192 8.23411C37.4081 10.6665 33.8659 15.8802 33.8659 21.9072V23.4628C33.8659 24.3356 34.5707 25.0449 35.4439 25.0503C35.547 25.0501 36.2003 25.0501 37.2525 24.9822V26.9873C37.2525 33.4649 42.5223 38.7347 48.9998 38.7347C55.4774 38.7347 60.7472 33.4649 60.7472 26.9873V25.0111C61.322 25.1238 61.9219 25.1883 62.5464 25.1883C63.4232 25.1883 64.1339 24.4776 64.1339 23.6008V21.9074C64.1339 15.8806 60.5922 10.6669 55.4816 8.23449ZM49 3.17486C50.9258 3.17486 52.4924 4.74152 52.4924 6.66725C52.4924 6.83895 52.4763 7.00777 52.452 7.17505C51.3423 6.91493 50.1879 6.7731 49 6.7731C47.8123 6.7731 46.6578 6.91493 45.5482 7.17486C45.5241 7.00796 45.5076 6.83914 45.5076 6.66725C45.5076 4.74171 47.0743 3.17486 49 3.17486ZM57.5723 26.9871C57.5723 31.7139 53.7268 35.5595 49 35.5595C44.2732 35.5595 40.4277 31.7139 40.4277 26.9871V24.6585C43.9944 24.1679 48.9723 23.0625 53.6707 20.5691C54.4853 21.5091 55.8196 22.8277 57.5725 23.8157L57.5723 26.9871ZM55.3983 17.6364C54.9296 16.9375 53.9971 16.7255 53.2722 17.1538C47.215 20.7333 40.1337 21.5992 37.0413 21.8084C37.0949 15.2597 42.4388 9.94815 49 9.94815C55.5595 9.94815 60.9024 15.2568 60.9585 21.8035C57.6604 20.9366 55.4242 17.6743 55.3983 17.6364Z" fill="#143A5E"/>
</svg>
