<svg width="107" height="86" viewBox="0 0 107 86" fill="none" xmlns="http://www.w3.org/2000/svg">
<circle cx="56.1836" cy="30.484" r="23.4474" fill="#FFC37E"/>
<path d="M97.7907 13.2846C96.2157 5.62394 88.3181 0 78.8189 0C69.3197 0 61.42 5.62598 59.847 13.2846C54.9075 15.2947 51.5572 20.1771 51.5572 25.5845C51.5572 32.236 56.4866 37.7701 62.8847 38.7179C63.7039 45.0671 68.7559 48.9587 76.7761 49.5307V81.1089H61.0401L58.8706 72.0653C62.3005 71.1378 64.8459 68.0286 64.8459 64.3086C64.8459 60.8051 62.5885 57.8471 59.463 56.7358V45.0651C59.463 41.6862 56.7133 38.9365 53.3345 38.9365H11.5134C8.13459 38.9365 5.38493 41.6862 5.38493 45.0651V56.7358C2.25938 57.8471 0.00204367 60.8072 0.00204367 64.3086C0.00204367 68.2758 2.88653 71.5668 6.66579 72.2348L4.5351 81.1089H2.04284C0.915192 81.1089 0 82.0241 0 83.1518C0 84.2794 0.915192 85.1946 2.04284 85.1946H53.1486H59.4303H92.8634C93.9931 85.1946 94.9063 84.2794 94.9063 83.1518C94.9063 82.0241 93.9931 81.1089 92.8634 81.1089H80.8617V49.5307C88.8819 48.9587 93.9318 45.0671 94.751 38.7179C101.149 37.7721 106.081 32.2381 106.081 25.5845C106.081 20.1771 102.73 15.2947 97.7907 13.2846ZM9.47061 45.0651C9.47061 43.9394 10.3878 43.0222 11.5134 43.0222H53.3345C54.4621 43.0222 55.3773 43.9394 55.3773 45.0651V56.2414H9.47061V45.0651ZM4.08772 64.3086C4.08772 62.1125 5.87521 60.3271 8.06922 60.3271H56.7787C58.9748 60.3271 60.7602 62.1146 60.7602 64.3086C60.7602 66.5026 58.9748 68.2901 56.7787 68.2901C39.2573 68.2901 25.6581 68.2901 8.06922 68.2901C5.87317 68.2901 4.08772 66.5047 4.08772 64.3086ZM46.8076 72.3758L50.1722 81.1089H15.403L18.7676 72.3758H46.8076ZM8.73723 81.1089L10.8332 72.3758H14.3877L11.0252 81.1089H8.73723ZM54.552 81.1089L51.1874 72.3758H54.744L56.84 81.1089H54.552ZM92.8226 34.7753C91.6949 34.7773 90.7838 35.6925 90.7838 36.8181C90.7838 43.157 85.7768 45.1018 80.8638 45.4838V37.2491L89.3232 28.5895C90.1117 27.7826 90.0954 26.4895 89.2885 25.701C88.4795 24.9145 87.1884 24.9288 86.3978 25.7357L80.8638 31.4005V22.2894C80.8638 21.1618 79.9506 20.2466 78.8209 20.2466C77.6912 20.2466 76.7781 21.1618 76.7781 22.2894V34.5873L70.9008 28.7366C70.1041 27.9399 68.809 27.944 68.0123 28.7428C67.2156 29.5436 67.2197 30.8346 68.0204 31.6313L76.7781 40.3502V45.4838C71.863 45.1018 66.856 43.157 66.856 36.8161C66.856 35.6905 65.9449 34.7753 64.8173 34.7732C59.7592 34.763 55.647 30.6406 55.647 25.5825C55.647 21.5315 58.3619 17.9075 62.2515 16.7676C63.0441 16.5368 63.6202 15.8484 63.708 15.0271C64.3719 8.89248 71.0112 4.08568 78.8209 4.08568C86.6307 4.08568 93.27 8.89248 93.9339 15.0271C94.0217 15.8484 94.5978 16.5368 95.3904 16.7676C99.28 17.9075 101.995 21.5336 101.995 25.5825C101.995 30.6406 97.8786 34.765 92.8226 34.7753Z" fill="#143A5E"/>
</svg>
