<svg width="101" height="96" viewBox="0 0 101 96" fill="none" xmlns="http://www.w3.org/2000/svg">
<circle cx="77.1836" cy="23.4474" r="23.4474" fill="#FFC37E"/>
<path d="M63.8708 66.9674C63.8708 65.3666 62.5683 64.0642 60.9676 64.0642H29.0316C27.4307 64.0642 26.1284 65.3668 26.1284 66.9674V69.8707C26.1284 71.4716 27.4309 72.7739 29.0316 72.7739H31.9348V93.0968C31.9348 94.6976 33.2374 96 34.8381 96H55.1609C56.7618 96 58.0642 94.6975 58.0642 93.0968V72.7739H60.9674C62.5683 72.7739 63.8706 71.4714 63.8706 69.8707V66.9674H63.8708ZM55.1609 93.0968H34.8383V72.7739H55.1611V93.0968H55.1609ZM60.9676 69.8707H29.0316V66.9674H60.9674L60.9692 69.8707C60.9692 69.8707 60.9688 69.8707 60.9676 69.8707Z" fill="#143A5E"/>
<path d="M87.0969 49.5479H84.1937C82.5928 49.5479 81.2905 50.8504 81.2905 52.4511V72.7739H66.7741C65.1732 72.7739 63.8708 74.0765 63.8708 75.6772V78.5804C63.8708 80.1813 65.1734 81.4837 66.7741 81.4837V93.0968C66.7741 94.6977 68.0766 96 69.6773 96H72.5806C74.1814 96 75.4838 94.6975 75.4838 93.0968V87.2903H81.2903V93.0968C81.2903 94.6977 82.5928 96 84.1935 96H87.0968C88.6976 96 90 94.6975 90 93.0968V52.4511C90.0002 50.8502 88.6976 49.5479 87.0969 49.5479ZM87.0969 52.4511V61.1608H84.1937V52.4511H87.0969ZM84.1937 64.0642H87.0969V72.7739H84.1937V64.0642ZM66.7741 75.6772H87.0969V78.5804H66.7741V75.6772ZM69.6773 93.0968V81.4837H72.5806V93.0968H69.6773ZM75.4838 84.3869V81.4837H81.2903V84.3869H75.4838ZM84.1937 93.0968V81.4837H87.0969V93.0968H84.1937Z" fill="#143A5E"/>
<path d="M23.2251 72.7739H8.70874V52.4511C8.70874 50.8502 7.40619 49.5479 5.8055 49.5479H2.90226C1.30158 49.5479 -0.000976562 50.8502 -0.000976562 52.4511V93.0968C-0.000976562 94.6975 1.30158 96 2.90226 96H5.8055C7.40636 96 8.70874 94.6975 8.70874 93.0968V87.2903H14.5152V93.0968C14.5152 94.6977 15.8178 96 17.4185 96H20.3217C21.9226 96 23.2249 94.6975 23.2249 93.0968V81.4837C24.8258 81.4837 26.1282 80.1811 26.1282 78.5804V75.6772C26.1284 74.0765 24.826 72.7739 23.2251 72.7739ZM2.90226 72.7739V64.0642H5.8055V72.7739H2.90226ZM5.8055 52.4511V61.1608H2.90226V52.4511H5.8055ZM2.90226 93.0968V81.4837H5.8055V93.0968H2.90226ZM8.70874 84.3869V81.4837H14.5152V84.3869H8.70874ZM20.3219 93.0968H17.4186V81.4837H20.3219V93.0968ZM23.2251 78.5804H2.90226V75.6772H23.2251V78.5804Z" fill="#143A5E"/>
<path d="M8.70878 46.6447H81.2903C82.8912 46.6447 84.1935 45.3422 84.1935 43.7415V8.90226C84.1937 7.30158 82.8912 5.99902 81.2905 5.99902H8.70878C7.10792 5.99902 5.80554 7.30158 5.80554 8.90226V43.7415C5.80554 45.3422 7.1081 46.6447 8.70878 46.6447ZM8.70878 26.3219H25.7844L22.0516 43.7415H8.70878V26.3219ZM31.8275 26.3219L30.5833 43.7415H25.0206L28.7535 26.3219H31.8275ZM34.7383 26.3219H55.261L56.5052 43.7415H33.4941L34.7383 26.3219ZM34.8383 23.4186V17.6122H55.1611V23.4186H34.8383ZM58.1718 26.3219H61.2457L64.9786 43.7415H59.416L58.1718 26.3219ZM60.9676 23.4186H58.0644V17.6122H60.9676V23.4186ZM63.8709 17.6122H81.2908L81.2912 23.4186H63.8709V17.6122ZM58.0644 14.7087V8.90226H60.9676V14.7087H58.0644ZM55.161 14.7087H34.8383V8.90226H55.1611V14.7087H55.161ZM31.9349 14.7087H29.0316V8.90226H31.9349V14.7087ZM31.9349 17.6122V23.4186H29.0316V17.6122H31.9349ZM26.1284 23.4186H8.70878V17.6122H26.1284V23.4186ZM81.2905 43.7415H67.9476L64.2149 26.3219H81.2914L81.2922 43.7415C81.2922 43.7415 81.2917 43.7415 81.2905 43.7415ZM81.2908 14.7087H63.8709V8.90226H81.2905L81.2908 14.7087ZM26.1284 8.90226V14.7087H8.70878V8.90226H26.1284Z" fill="#143A5E"/>
</svg>
