<svg width="113" height="103" viewBox="0 0 113 103" fill="none" xmlns="http://www.w3.org/2000/svg">
<circle cx="89.1836" cy="32.4474" r="23.4474" fill="#FFC37E"/>
<g clip-path="url(#clip0_34_2)">
<path fill-rule="evenodd" clip-rule="evenodd" d="M99.1862 97.0874V101.119C99.1862 102.163 98.3447 103 97.3153 103H12.1834C11.145 103 10.3125 102.154 10.3125 101.119V97.0874V75.7764V53.0075C8.21776 53.8175 6.25731 53.8355 4.62808 53.2775C3.35692 52.8456 2.2827 52.0716 1.49494 51.0726C0.707179 50.0737 0.205877 48.8587 0.0536961 47.5178C-0.179051 45.4389 0.438624 43.09 2.20213 40.8851C2.29165 40.7771 2.39012 40.6691 2.5065 40.5791L53.5766 0.49509C54.2391 -0.11688 55.2596 -0.179877 55.9936 0.396095L107.189 40.4082C107.27 40.4712 107.341 40.5341 107.413 40.6151C109.785 43.18 110.376 46.0239 109.803 48.4268C109.517 49.6147 108.953 50.6857 108.174 51.5586C107.395 52.4406 106.401 53.1245 105.273 53.5295C103.483 54.1775 101.353 54.1595 99.1951 53.1335V75.7764V97.0874H99.1862ZM4.98615 43.405C3.9925 44.7099 3.64338 46.0149 3.75975 47.1128C3.83137 47.7428 4.05516 48.3008 4.41323 48.7507C4.76235 49.1917 5.2368 49.5247 5.80972 49.7227C6.78547 50.0557 8.04767 49.9657 9.48892 49.2817L54.06 15.1914C54.7493 14.6604 55.6893 14.6874 56.3428 15.2004L99.6427 49.0387C99.6606 49.0567 99.6785 49.0747 99.7054 49.0837C101.29 50.2357 102.812 50.4157 103.993 49.9927C104.539 49.7947 105.014 49.4707 105.381 49.0477C105.757 48.6248 106.025 48.1208 106.16 47.5538C106.455 46.3119 106.097 44.7819 104.772 43.288L54.8478 4.26591L4.98615 43.405ZM26.4974 67.9378H50.3987C51.3297 67.9378 52.0906 68.6848 52.0906 69.6027V88.4028C52.0906 89.3208 51.3297 90.0677 50.3987 90.0677H26.4974C25.5664 90.0677 24.8055 89.3208 24.8055 88.4028V69.6027C24.8144 68.6848 25.5664 67.9378 26.4974 67.9378ZM60.6307 66.2819H83.0729C84.0755 66.2819 84.8901 67.1279 84.8901 68.1718V99.2383H95.4354V50.9106C95.4354 50.7846 95.4443 50.6677 95.4712 50.5507L55.179 19.0612L13.9917 50.5687C14.0364 50.7217 14.0543 50.8836 14.0543 51.0546V99.2293H58.8135V68.1628C58.8135 67.1189 59.6281 66.2819 60.6307 66.2819ZM81.2557 70.0527H62.4569V99.1933H81.2557V70.0527ZM48.7069 80.6632H39.8356V86.7379H48.7069V80.6632ZM36.5234 80.6632H28.1893V86.7379H36.5234V80.6632ZM28.1893 77.3334H36.5234V71.2677H28.1893V77.3334ZM39.8356 77.3334H48.7069V71.2677H39.8356V77.3334ZM54.4987 32.6955C57.6766 32.6955 60.2547 35.2874 60.2547 38.4822C60.2547 41.6771 57.6766 44.269 54.4987 44.269C51.3208 44.269 48.7427 41.6771 48.7427 38.4822C48.7427 35.2784 51.3208 32.6955 54.4987 32.6955Z" fill="#143A5E"/>
</g>
<defs>
<clipPath id="clip0_34_2">
<rect width="110" height="103" fill="white"/>
</clipPath>
</defs>
</svg>
