<svg width="31" height="33" viewBox="0 0 31 33" fill="none" xmlns="http://www.w3.org/2000/svg">
<path d="M26.8361 22.5654C24.9366 20.9407 23.0089 19.9566 21.1327 21.5788L20.0124 22.5592C19.1927 23.2709 17.6687 26.5963 11.7763 19.818C5.88516 13.0482 9.39089 11.9942 10.2118 11.2886L11.3383 10.307C13.2046 8.68108 12.5003 6.63434 11.1542 4.52746L10.3419 3.25131C8.98964 1.14934 7.51716 -0.231113 5.64588 1.3923L4.63478 2.27579C3.80773 2.87828 1.49593 4.83668 0.935163 8.55715C0.260275 13.0212 2.38924 18.1332 7.26684 23.7421C12.1383 29.3535 16.9079 32.1721 21.426 32.123C25.1808 32.0825 27.4484 30.0677 28.1577 29.3351L29.1725 28.4504C31.0388 26.8282 29.8793 25.1766 27.9785 23.5482L26.8361 22.5654Z" fill="#143A5E"/>
</svg>
