<svg width="23" height="20" viewBox="0 0 23 20" fill="none" xmlns="http://www.w3.org/2000/svg">
<g clip-path="url(#clip0_703_2)">
<path fill-rule="evenodd" clip-rule="evenodd" d="M1.94064 0H21.0595C22.127 0 23 0.900501 23 2.00118C23 3.10185 22.127 4.00255 21.0595 4.00255H1.94064C0.873363 4.00255 0 3.10205 0 2.00137C0 0.900501 0.873363 0 1.94064 0ZM1.94064 15.9976H21.0595C22.127 15.9976 23 16.8981 23 17.9988C23 19.0995 22.127 20 21.0595 20H1.94064C0.873363 20 0 19.0995 0 17.9988C0 16.8981 0.873363 15.9976 1.94064 15.9976ZM1.94064 7.99892H21.0595C22.127 7.99892 23 8.89942 23 10.0001C23 11.1008 22.127 12.0015 21.0595 12.0015H1.94064C0.873363 12.0015 0 11.1008 0 10.0001C0 8.89942 0.873363 7.99892 1.94064 7.99892Z" fill="black"/>
</g>
<defs>
<clipPath id="clip0_703_2">
<rect width="23" height="20" fill="white"/>
</clipPath>
</defs>
</svg>
