<svg width="34" height="33" viewBox="0 0 34 33" fill="none" xmlns="http://www.w3.org/2000/svg">
<g clip-path="url(#clip0_66_404)">
<path fill-rule="evenodd" clip-rule="evenodd" d="M21.4286 22.9497C20.2467 24.26 18.8841 25.3934 17.3823 26.3153C17.2891 26.3852 17.1769 26.4248 17.0607 26.4286C16.9445 26.4324 16.83 26.4002 16.7325 26.3365C14.5944 24.9783 12.6959 23.2722 11.1147 21.2881C9.04923 18.7029 7.75768 15.8363 7.3166 13.0758C6.86759 10.2756 7.28754 7.58149 8.67418 5.39172C9.23952 4.50632 9.94732 3.72148 10.7687 3.06924C12.7258 1.49261 14.9576 0.664476 17.1895 0.680401C19.4542 0.71881 21.6222 1.61016 23.2642 3.17806C23.8965 3.76027 24.4434 4.42961 24.8886 5.16611C26.3782 7.63457 26.7005 10.7825 26.0454 13.973C25.3197 17.3221 23.723 20.4179 21.418 22.9444L21.4286 22.9497ZM7.23736 20.6378C7.36591 20.631 7.4945 20.6505 7.61529 20.6953C7.73608 20.74 7.84654 20.809 7.93994 20.898C8.03333 20.9871 8.10771 21.0943 8.15854 21.2131C8.20937 21.332 8.23558 21.46 8.23558 21.5894C8.23558 21.7187 8.20937 21.8467 8.15854 21.9656C8.10771 22.0845 8.03333 22.1917 7.93994 22.2807C7.84654 22.3697 7.73608 22.4387 7.61529 22.4835C7.4945 22.5282 7.36591 22.5477 7.23736 22.5409H5.45718L3.11442 30.1427H30.3744L27.8309 22.533H26.3598C26.2312 22.5398 26.1026 22.5202 25.9818 22.4755C25.861 22.4308 25.7506 22.3618 25.6572 22.2727C25.5638 22.1837 25.4894 22.0765 25.4386 21.9576C25.3877 21.8388 25.3615 21.7108 25.3615 21.5814C25.3615 21.452 25.3877 21.324 25.4386 21.2052C25.4894 21.0863 25.5638 20.9791 25.6572 20.8901C25.7506 20.801 25.861 20.7321 25.9818 20.6873C26.1026 20.6426 26.2312 20.623 26.3598 20.6299H29.1859L33.005 32.0432H0.549805L4.0679 20.6299L7.23736 20.6378ZM16.7616 5.17672L11.1384 10.5383L12.459 11.2391L16.7246 6.93385L21.0536 11.2391L22.3742 10.5383L16.7616 5.17672ZM12.9345 12.0035L16.7669 8.15215L20.5887 12.0035V15.7832H17.7969V13.1289H15.7025V15.7832H12.9345V12.0035Z" fill="#143A5E"/>
</g>
<defs>
<clipPath id="clip0_66_404">
<rect width="32.4552" height="31.3734" fill="white" transform="translate(0.549805 0.68042)"/>
</clipPath>
</defs>
</svg>
