<svg width="25" height="24" viewBox="0 0 25 24" fill="none" xmlns="http://www.w3.org/2000/svg">
<g clip-path="url(#clip0_60_17)">
<path fill-rule="evenodd" clip-rule="evenodd" d="M16.0828 17.0355C15.1723 18.0378 14.1227 18.9048 12.9659 19.6101C12.8942 19.6636 12.8077 19.6938 12.7182 19.6968C12.6287 19.6997 12.5405 19.6751 12.4654 19.6263C10.8184 18.5873 9.356 17.2822 8.13802 15.7644C6.54704 13.7867 5.55217 11.5938 5.2124 9.48216C4.86654 7.34003 5.19002 5.27912 6.25814 3.60399C6.69362 2.92668 7.23883 2.32629 7.8715 1.82734C9.37907 0.621248 11.0982 -0.0122544 12.8174 -7.16819e-05C14.5619 0.0293105 16.2319 0.711172 17.4967 1.91059C17.9837 2.35596 18.405 2.868 18.748 3.4314C19.8954 5.31973 20.1436 7.72785 19.6391 10.1685C19.0801 12.7305 17.8501 15.0987 16.0746 17.0314L16.0828 17.0355ZM5.15137 15.2669C5.25039 15.2617 5.34944 15.2767 5.44248 15.3109C5.53553 15.3451 5.62061 15.3979 5.69256 15.466C5.7645 15.5341 5.82179 15.6161 5.86095 15.707C5.9001 15.798 5.92029 15.8959 5.92029 15.9949C5.92029 16.0938 5.9001 16.1917 5.86095 16.2827C5.82179 16.3736 5.7645 16.4556 5.69256 16.5237C5.62061 16.5918 5.53553 16.6446 5.44248 16.6788C5.34944 16.713 5.25039 16.728 5.15137 16.7228H3.78011L1.9755 22.538H22.9736L21.0144 16.7167H19.8812C19.7822 16.7219 19.6831 16.7069 19.5901 16.6727C19.497 16.6385 19.4119 16.5857 19.34 16.5176C19.2681 16.4495 19.2108 16.3675 19.1716 16.2766C19.1325 16.1857 19.1123 16.0877 19.1123 15.9888C19.1123 15.8898 19.1325 15.7919 19.1716 15.7009C19.2108 15.61 19.2681 15.528 19.34 15.4599C19.4119 15.3918 19.497 15.339 19.5901 15.3048C19.6831 15.2706 19.7822 15.2556 19.8812 15.2608H22.0581L25 23.9918H0L2.70996 15.2608L5.15137 15.2669ZM12.4878 3.43952L8.15633 7.54105L9.17358 8.07709L12.4593 4.78368L15.7939 8.07709L16.8111 7.54105L12.4878 3.43952ZM9.53979 8.66186L12.4919 5.71566L15.4358 8.66186V11.5532H13.2853V9.52277H11.672V11.5532H9.53979V8.66186Z" fill="#143A5E"/>
</g>
<defs>
<clipPath id="clip0_60_17">
<rect width="25" height="24" fill="white"/>
</clipPath>
</defs>
</svg>
