<svg width="187" height="46" viewBox="0 0 187 46" fill="none" xmlns="http://www.w3.org/2000/svg">
<g clip-path="url(#clip0_17_479)">
<path d="M56.5014 9.54173C54.0598 9.54173 52.8424 11.3192 52.8424 14.2954C52.8424 17.3956 53.8502 19.3039 56.542 19.2488C57.083 19.2488 57.5903 19.1868 57.9555 19.0697C58.3072 18.9525 58.3613 18.7941 58.3613 18.4152V16.8375L60.3362 16.9753V20.3855C59.2676 20.9573 57.7391 21.1916 56.5014 21.1916C52.5719 21.1916 50.4211 18.9457 50.4211 14.4469C50.4211 9.29372 53.5188 7.57828 56.5014 7.57828C57.6444 7.57828 58.9836 7.83318 60.1401 8.38433V11.7394L58.1652 11.8772V10.3409C58.1652 9.96887 58.1043 9.81042 57.7594 9.68641C57.3942 9.58307 56.8869 9.54173 56.5014 9.54173Z" fill="black"/>
<path d="M66.5514 10.7267C67.9853 10.7267 70.8732 11.1814 70.8732 15.7214C70.8732 19.5106 68.8036 21.2467 66.2403 21.2467C63.6432 21.2467 61.9388 19.5519 61.9388 15.9763C61.9456 11.8703 64.5562 10.7267 66.5514 10.7267ZM68.5128 16.0384C68.5128 13.8269 67.992 12.4697 66.4432 12.4697C64.9147 12.4697 64.2925 13.8131 64.2925 15.7077C64.2925 17.5402 64.5427 19.5175 66.4026 19.5175C67.9109 19.5106 68.5128 18.0914 68.5128 16.0384Z" fill="black"/>
<path d="M72.0568 11.0229H75.3303V12.3043C76.0066 11.3192 76.994 10.7267 78.2723 10.7267C79.51 10.7267 80.4028 11.2365 80.8492 12.3043C81.5255 11.3192 82.5129 10.7267 83.7912 10.7267C85.6106 10.7267 86.6995 11.829 86.6995 14.1576V19.3108L87.8019 19.3728V20.9504H83.1893V19.4486L83.8318 19.3866C84.1835 19.3452 84.3729 19.2281 84.3932 18.7527V14.6743C84.3932 13.4686 84.2985 12.5455 83.054 12.5455C81.7554 12.5455 81.1738 13.4135 81.1738 14.5778V19.3108L82.2424 19.3728V20.9504H77.6704V19.4486L78.3129 19.3866C78.6781 19.3452 78.8743 19.2281 78.8743 18.7321V14.6674C78.8743 13.4617 78.7796 12.5386 77.5351 12.5386C76.1824 12.5386 75.6549 13.5031 75.6549 14.5296V19.3039L76.7032 19.3659V20.9435H72.1312V19.4417L72.7737 19.3797C73.1389 19.3383 73.3351 19.2212 73.3351 18.7252H73.3554V13.2826C73.3554 12.8486 73.2404 12.6901 72.8684 12.6695L72.0568 12.6075V11.0229Z" fill="black"/>
<path d="M90.0338 13.2757C90.0338 12.8417 89.9188 12.6833 89.5468 12.6833L88.7352 12.6212V11.0229H92.0087V12.3043C92.3604 11.6361 93.4222 10.7267 95.0725 10.7267C97.2232 10.7267 98.5759 12.2079 98.5759 15.7352C98.5759 19.3659 96.8918 21.2398 94.3353 21.2398C93.5778 21.2398 92.7662 20.9849 92.2657 20.668V23.3893L93.8348 23.465V25.022H88.8367V23.5202L89.4792 23.4581C89.8444 23.4168 90.0406 23.2997 90.0406 22.8037V13.2757H90.0338ZM94.2135 12.6419C93.1111 12.6419 92.2589 13.4342 92.2589 14.3367V18.8768C92.7594 19.2143 93.4628 19.3728 93.9633 19.3728C95.6068 19.3728 96.1749 17.6573 96.1749 15.9419C96.1749 13.3102 95.2416 12.6419 94.2135 12.6419Z" fill="black"/>
<path d="M108.647 18.7596C108.647 19.1937 108.762 19.3108 109.133 19.3314L109.756 19.3728V20.9504H106.678V19.8068L106.618 19.7861C106.016 20.6749 105.028 21.2053 103.966 21.2053C101.234 21.2053 100.091 19.235 100.091 16.4104C100.091 12.9382 101.721 10.7267 105.204 10.7267C105.847 10.7267 107.26 10.8851 108.653 11.4156V18.7596H108.647ZM106.401 12.7039C106.11 12.5661 105.508 12.449 104.906 12.449C103.067 12.449 102.445 14.2058 102.445 16.3346C102.445 17.9743 102.83 19.5312 104.46 19.5312C105.664 19.5312 106.394 18.6632 106.394 17.8158V12.7039H106.401Z" fill="black"/>
<path d="M110.818 11.0229H114.091V12.3043C114.767 11.3192 115.951 10.7267 117.229 10.7267C119.164 10.7267 120.307 11.829 120.307 14.1576V19.3108L121.409 19.3728V20.9504H116.803V19.4486L117.446 19.3866C117.811 19.3452 118.007 19.2281 118.007 18.7321V14.6674C118.007 13.3653 117.736 12.5386 116.418 12.5386C115.139 12.5386 114.422 13.5031 114.422 14.5296V19.3039L115.525 19.3659V20.9435H110.912V19.4417L111.555 19.3797C111.92 19.3383 112.116 19.2212 112.116 18.7252V13.262C112.116 12.8279 111.981 12.6695 111.629 12.6488L110.818 12.5868V11.0229Z" fill="black"/>
<path d="M129.681 19.0766C129.004 20.0617 127.821 20.6129 126.542 20.6129C124.608 20.6129 123.539 19.5244 123.539 17.2027V13.2344C123.539 12.8211 123.384 12.7039 123.053 12.6833L122.43 12.6419V11.0229H125.839V16.686C125.839 17.8916 126.035 18.7941 127.273 18.7941C128.626 18.7941 129.342 17.864 129.342 16.8375V13.2689C129.342 12.8348 129.227 12.6764 128.855 12.6764L128.233 12.6351V11.0229H131.642V20.5715C131.642 23.8302 130.032 25.1667 127.151 25.1667C125.934 25.1667 124.324 24.9325 123.512 24.5122V21.7703L125.352 21.6118V22.5557C125.352 22.9277 125.447 23.1275 125.798 23.2653C126.164 23.4031 126.59 23.4651 127.171 23.4651C128.95 23.4651 129.667 22.3628 129.667 20.5647V19.0766H129.681Z" fill="black"/>
<path d="M137.506 19.3521L138.202 19.2901C138.534 19.2695 138.703 19.1317 138.703 18.739V9.5624L137.6 9.5004V7.82629H141.09L146.575 16.8858H146.616V9.5624L145.338 9.5004V7.82629H150.065V9.42462L149.369 9.48662C149.078 9.50729 148.902 9.68641 148.902 10.0998V20.9504H146.63L141.029 11.7532H140.989V19.2143L142.247 19.2763V20.9504H137.499V19.3521H137.506Z" fill="black"/>
<path d="M159.879 18.7596C159.879 19.1937 159.994 19.3108 160.366 19.3314L160.988 19.3728V20.9504H157.911V19.8068L157.85 19.7861C157.248 20.6749 156.261 21.2053 155.199 21.2053C152.466 21.2053 151.323 19.235 151.323 16.4104C151.323 12.9382 152.953 10.7267 156.436 10.7267C157.079 10.7267 158.492 10.8851 159.886 11.4156V18.7596H159.879ZM157.634 12.7039C157.343 12.5661 156.741 12.449 156.139 12.449C154.299 12.449 153.677 14.2058 153.677 16.3346C153.677 17.9743 154.062 19.5312 155.692 19.5312C156.896 19.5312 157.627 18.6632 157.627 17.8158V12.7039H157.634Z" fill="black"/>
<path d="M162.05 11.0229H165.323V12.3043C166 11.3192 166.987 10.7267 168.266 10.7267C169.503 10.7267 170.396 11.2365 170.842 12.3043C171.519 11.3192 172.506 10.7267 173.784 10.7267C175.604 10.7267 176.693 11.829 176.693 14.1576V19.3108L177.795 19.3728V20.9504H173.182V19.4486L173.825 19.3866C174.177 19.3452 174.366 19.2281 174.386 18.7527V14.6743C174.386 13.4686 174.292 12.5455 173.047 12.5455C171.749 12.5455 171.167 13.4135 171.167 14.5778V19.3108L172.236 19.3728V20.9504H167.664V19.4486L168.306 19.3866C168.671 19.3452 168.867 19.2281 168.867 18.7321V14.6674C168.867 13.4617 168.773 12.5386 167.528 12.5386C166.176 12.5386 165.648 13.5031 165.648 14.5296V19.3039L166.696 19.3659V20.9435H162.124V19.4417L162.767 19.3797C163.132 19.3383 163.328 19.2212 163.328 18.7252H163.349V13.2826C163.349 12.8486 163.234 12.6901 162.862 12.6695L162.05 12.6075V11.0229Z" fill="black"/>
<path d="M186.959 13.4687C186.959 16.5068 183.727 17.0235 181.441 17.0373C181.515 18.3187 182.178 19.3659 183.821 19.3659C184.964 19.3659 185.796 18.8354 186.263 18.4979L187 20.0962C186.689 20.3718 185.411 21.1985 183.591 21.1985C180.298 21.1985 179.019 19.1455 179.019 16.2037C179.019 13.2826 180.629 10.7198 183.801 10.7198C185.701 10.7267 186.959 11.7119 186.959 13.4687ZM183.666 12.4077C182.117 12.4077 181.42 13.9302 181.359 15.3839C182.793 15.3632 184.829 15.0256 184.829 13.51C184.829 12.7797 184.362 12.4077 183.666 12.4077Z" fill="black"/>
<path d="M54.2759 33.7991V36.3205H53.2614V33.7784L50.4141 29.0247H51.5097L53.8025 32.8759L56.1088 29.0247H57.1233L54.2759 33.7991Z" fill="#B97C3B"/>
<path d="M56.9001 33.5579C56.9001 31.9114 58.0972 30.7402 59.7272 30.7402C61.3572 30.7402 62.5408 31.9114 62.5408 33.5579C62.5408 35.2045 61.3504 36.3825 59.7272 36.3825C58.0972 36.3825 56.9001 35.2045 56.9001 33.5579ZM61.5465 33.5579C61.5465 32.3798 60.7688 31.6151 59.7272 31.6151C58.6856 31.6151 57.8943 32.3729 57.8943 33.5579C57.8943 34.7429 58.6856 35.5076 59.7272 35.5076C60.7688 35.5076 61.5465 34.736 61.5465 33.5579Z" fill="#B97C3B"/>
<path d="M68.9592 30.7953V36.3205H68.0259V35.4869C67.6268 36.0587 66.9505 36.3825 66.1862 36.3825C64.7862 36.3825 63.8529 35.5971 63.8529 33.9713V30.7953H64.8335V33.861C64.8335 34.9427 65.3679 35.4869 66.2944 35.4869C67.3157 35.4869 67.9717 34.8393 67.9717 33.6544V30.7953H68.9592Z" fill="#B97C3B"/>
<path d="M73.7476 30.7402V31.7116C73.6665 31.6978 73.5921 31.6978 73.5245 31.6978C72.4694 31.6978 71.8133 32.3523 71.8133 33.5648V36.3205H70.8326V30.7953H71.7727V31.7253C72.1177 31.0777 72.794 30.7402 73.7476 30.7402Z" fill="#B97C3B"/>
<path d="M77.339 32.6692C77.339 30.5128 78.9554 28.9352 81.14 28.9352C82.2424 28.9352 83.2096 29.321 83.8656 30.0719L83.2028 30.7264C82.6482 30.1339 81.9719 29.8583 81.1873 29.8583C79.5709 29.8583 78.3738 31.0502 78.3738 32.6623C78.3738 34.2813 79.5709 35.4663 81.1873 35.4663C81.9787 35.4663 82.6482 35.1838 83.2028 34.5913L83.8656 35.2458C83.2096 35.9967 82.2492 36.3894 81.1332 36.3894C78.9554 36.4032 77.339 34.8324 77.339 32.6692Z" fill="#B97C3B"/>
<path d="M84.454 33.5579C84.454 31.9114 85.6511 30.7402 87.2811 30.7402C88.9111 30.7402 90.0947 31.9114 90.0947 33.5579C90.0947 35.2045 88.9043 36.3825 87.2811 36.3825C85.6511 36.3825 84.454 35.2045 84.454 33.5579ZM89.1005 33.5579C89.1005 32.3798 88.3227 31.6151 87.2811 31.6151C86.2396 31.6151 85.4482 32.3729 85.4482 33.5579C85.4482 34.7429 86.2396 35.5076 87.2811 35.5076C88.3227 35.5076 89.1005 34.736 89.1005 33.5579Z" fill="#B97C3B"/>
<path d="M100.463 33.1446V36.3274H99.4822V33.2617C99.4822 32.1801 98.9682 31.6427 98.0822 31.6427C97.1015 31.6427 96.4522 32.2765 96.4522 33.4753V36.3205H95.4715V33.2548C95.4715 32.1732 94.9575 31.6358 94.0715 31.6358C93.0908 31.6358 92.4416 32.2696 92.4416 33.4684V36.3137H91.4609V30.7953H92.401V31.622C92.7933 31.0571 93.4561 30.7471 94.2744 30.7471C95.1063 30.7471 95.8029 31.0778 96.1546 31.7667C96.5672 31.1398 97.3247 30.7471 98.2445 30.7471C99.5634 30.7402 100.463 31.5118 100.463 33.1446Z" fill="#B97C3B"/>
<path d="M107.896 33.5579C107.896 35.2596 106.739 36.3825 105.15 36.3825C104.379 36.3825 103.709 36.0794 103.256 35.4869V38.346H102.275V30.7953H103.216V31.6702C103.655 31.0571 104.352 30.7402 105.15 30.7402C106.739 30.7402 107.896 31.87 107.896 33.5579ZM106.902 33.5579C106.902 32.3867 106.11 31.6151 105.069 31.6151C104.034 31.6151 103.249 32.3867 103.249 33.5579C103.249 34.736 104.041 35.5076 105.069 35.5076C106.117 35.5076 106.902 34.736 106.902 33.5579Z" fill="#B97C3B"/>
<path d="M113.509 32.9861V36.3205H112.576V35.5903C112.251 36.0932 111.643 36.3825 110.797 36.3825C109.566 36.3825 108.789 35.7143 108.789 34.7567C108.789 33.8679 109.35 33.1377 110.966 33.1377H112.522V32.9379C112.522 32.0905 112.042 31.6014 111.068 31.6014C110.425 31.6014 109.769 31.8287 109.35 32.1938L108.937 31.4429C109.499 30.9813 110.31 30.7333 111.176 30.7333C112.671 30.7402 113.509 31.4705 113.509 32.9861ZM112.522 34.6327V33.8611H111.007C110.033 33.8611 109.756 34.2469 109.756 34.7153C109.756 35.2665 110.209 35.6109 110.953 35.6109C111.697 35.6109 112.278 35.2665 112.522 34.6327Z" fill="#B97C3B"/>
<path d="M120.476 33.1445V36.3274H119.495V33.2617C119.495 32.18 118.961 31.6427 118.034 31.6427C116.993 31.6427 116.316 32.2765 116.316 33.4752V36.3205H115.336V30.7953H116.276V31.6289C116.675 31.064 117.371 30.7402 118.23 30.7402C119.549 30.7402 120.476 31.5118 120.476 33.1445Z" fill="#B97C3B"/>
<path d="M127.002 30.7953L124.371 36.8717C123.891 38.0429 123.269 38.4011 122.437 38.4011C121.916 38.4011 121.382 38.222 121.044 37.8913L121.463 37.1404C121.727 37.4022 122.065 37.5468 122.437 37.5468C122.91 37.5468 123.208 37.3264 123.472 36.6926L123.648 36.3068L121.253 30.7884H122.275L124.168 35.2114L126.042 30.7884H127.002V30.7953Z" fill="#B97C3B"/>
<path d="M130.161 35.4869L130.54 34.674C131.074 35.1631 131.98 35.5214 132.907 35.5214C134.144 35.5214 134.679 35.0322 134.679 34.3984C134.679 32.6141 130.337 33.7439 130.337 31.0295C130.337 29.9066 131.196 28.9421 133.083 28.9421C133.921 28.9421 134.794 29.1694 135.389 29.5897L135.051 30.4233C134.428 30.0168 133.718 29.8308 133.083 29.8308C131.865 29.8308 131.344 30.3544 131.344 30.9882C131.344 32.7725 135.686 31.6565 135.686 34.3364C135.686 35.4525 134.807 36.4101 132.913 36.4101C131.811 36.4032 130.736 36.0312 130.161 35.4869Z" fill="#B97C3B"/>
<path d="M137.032 28.5838H138.013V36.3205H137.032V28.5838Z" fill="#B97C3B"/>
<path d="M139.386 33.5579C139.386 31.9114 140.583 30.7402 142.213 30.7402C143.843 30.7402 145.027 31.9114 145.027 33.5579C145.027 35.2045 143.836 36.3825 142.213 36.3825C140.583 36.3825 139.386 35.2045 139.386 33.5579ZM144.032 33.5579C144.032 32.3798 143.255 31.6151 142.213 31.6151C141.172 31.6151 140.38 32.3729 140.38 33.5579C140.38 34.7429 141.172 35.5076 142.213 35.5076C143.255 35.5076 144.032 34.736 144.032 33.5579Z" fill="#B97C3B"/>
<path d="M151.574 30.7953V35.5696C151.574 37.5193 150.6 38.408 148.76 38.408C147.766 38.408 146.765 38.1255 146.17 37.5813L146.643 36.8097C147.144 37.2506 147.935 37.5262 148.733 37.5262C150.011 37.5262 150.593 36.9199 150.593 35.6729V35.232C150.119 35.8038 149.416 36.0863 148.638 36.0863C147.069 36.0863 145.886 35.0047 145.886 33.4063C145.886 31.808 147.076 30.7402 148.638 30.7402C149.45 30.7402 150.187 31.0433 150.647 31.6496V30.7953H151.574ZM150.613 33.4132C150.613 32.3385 149.835 31.622 148.753 31.622C147.658 31.622 146.88 32.3385 146.88 33.4132C146.88 34.4742 147.658 35.2182 148.753 35.2182C149.835 35.2182 150.613 34.4742 150.613 33.4132Z" fill="#B97C3B"/>
<path d="M157.749 32.9861V36.3205H156.815V35.5903C156.491 36.0932 155.882 36.3825 155.036 36.3825C153.805 36.3825 153.028 35.7143 153.028 34.7567C153.028 33.8679 153.589 33.1377 155.206 33.1377H156.761V32.9379C156.761 32.0905 156.281 31.6014 155.307 31.6014C154.664 31.6014 154.008 31.8287 153.589 32.1938L153.177 31.4429C153.738 30.9813 154.549 30.7333 155.415 30.7333C156.91 30.7402 157.749 31.4705 157.749 32.9861ZM156.768 34.6327V33.8611H155.253C154.279 33.8611 154.002 34.2469 154.002 34.7153C154.002 35.2665 154.455 35.6109 155.199 35.6109C155.936 35.6109 156.524 35.2665 156.768 34.6327Z" fill="#B97C3B"/>
<path d="M164.722 33.1445V36.3274H163.741V33.2617C163.741 32.18 163.207 31.6427 162.28 31.6427C161.238 31.6427 160.562 32.2765 160.562 33.4752V36.3205H159.581V30.7953H160.521V31.6289C160.921 31.064 161.617 30.7402 162.476 30.7402C163.788 30.7402 164.722 31.5118 164.722 33.1445Z" fill="#B97C3B"/>
<path d="M11.0513 15.3908L20.4727 24.34C19.377 23.2997 19.3162 21.5498 20.3374 20.4337L30.0428 9.82419C31.0641 8.70813 32.782 8.64612 33.8777 9.68641L36.5018 11.8083C36.5018 11.0712 36.2178 10.3271 35.6429 9.78975L24.4631 0.74407C23.3674 -0.296218 21.6495 -0.234214 20.6282 0.881856L10.9228 11.4914C9.8948 12.6075 9.95567 14.3505 11.0513 15.3908Z" fill="black"/>
<path d="M44.5705 20.9504L34.1549 11.0643C33.0593 10.024 31.3414 10.086 30.3201 11.202L21.5413 20.7989C22.5626 19.6828 24.2805 19.6208 25.3761 20.6611L35.7917 30.5473C36.8873 31.5875 36.9482 33.3374 35.9269 34.4535L33.8438 37.1266C34.5675 37.1266 35.2912 36.8372 35.8255 36.2516L44.7058 24.8567C45.7338 23.7406 45.6729 21.9907 44.5705 20.9504Z" fill="#B97C3B"/>
<path d="M34.2835 30.6024L24.8554 21.66C25.951 22.7003 26.0119 24.4502 24.9906 25.5663L15.2852 36.1758C14.2639 37.2919 12.546 37.3539 11.4504 36.3136L8.8262 34.1917C8.8262 34.9289 9.11026 35.666 9.68515 36.2103L20.8717 45.256C21.9674 46.2963 23.6853 46.2342 24.7066 45.1182L34.412 34.5086C35.44 33.3925 35.3791 31.6427 34.2835 30.6024Z" fill="black"/>
<path d="M15.1095 34.7635L23.8951 25.1667C22.8738 26.2828 21.1559 26.3448 20.0603 25.3045L9.64471 15.4183C8.54904 14.378 8.48817 12.6281 9.50944 11.5121L11.5926 8.83902C10.8689 8.83902 10.1452 9.12837 9.61089 9.71396L0.730604 21.1089C-0.290663 22.225 -0.229793 23.9749 0.865871 25.0151L11.2814 34.9013C12.3771 35.9416 14.0882 35.8796 15.1095 34.7635Z" fill="#B97C3B"/>
</g>
<defs>
<clipPath id="clip0_17_479">
<rect width="187" height="46" fill="white"/>
</clipPath>
</defs>
</svg>
