<svg width="31" height="26" viewBox="0 0 31 26" fill="none" xmlns="http://www.w3.org/2000/svg">
<path d="M24.9213 10.4684V24.1249H19.765V18.2186C19.765 17.7007 19.3452 17.2811 18.8274 17.2811H12.2335C11.7157 17.2811 11.296 17.7008 11.296 18.2186V24.1249H6.17091V10.4684H4.2959V25.0625C4.2959 25.5803 4.71561 26 5.2334 26H12.2336C12.7514 26 13.1711 25.5802 13.1711 25.0625V19.1561H17.8899V25.0625C17.8899 25.5804 18.3097 26 18.8274 26H25.8589C26.3767 26 26.7964 25.5803 26.7964 25.0625V10.4684H24.9213Z" fill="#969696"/>
<path d="M29.78 12.9716L16.1859 0.252576C15.8281 -0.0827505 15.2718 -0.0849261 14.9109 0.246622L1.06682 12.9657C0.685575 13.316 0.660555 13.9089 1.01088 14.2901C1.19558 14.4917 1.44806 14.5935 1.70152 14.5935C1.92806 14.5935 2.15558 14.5117 2.33559 14.3463L15.5396 2.21541L28.499 14.3407C28.8778 14.6948 29.4703 14.6745 29.824 14.2966C30.1775 13.9185 30.1581 13.3253 29.78 12.9716Z" fill="#969696"/>
</svg>
