<svg width="123" height="101" viewBox="0 0 123 101" fill="none" xmlns="http://www.w3.org/2000/svg">
<g clip-path="url(#clip0_23_135)">
<path fill-rule="evenodd" clip-rule="evenodd" d="M9.29792 83.102V47.568C7.40792 48.296 5.63892 48.311 4.16992 47.811C3.02292 47.423 2.05292 46.728 1.34292 45.832C0.630924 44.936 0.179924 43.845 0.0419238 42.642C-0.168076 40.777 0.389924 38.668 1.98092 36.69C2.06192 36.594 2.15092 36.497 2.25492 36.416L48.3359 0.445967C48.9329 -0.103033 49.8549 -0.159033 50.5169 0.356967L81.2419 24.243L80.9539 24.341C76.3229 25.947 72.3129 28.862 69.9049 33.093C61.2039 26.103 51.6229 18.541 49.7889 17.114C46.0829 19.932 13.8199 44.774 13.8199 45.823V83.117L9.29792 83.102ZM97.7009 45.109L97.3759 42.935C97.8649 42.849 98.2479 42.646 98.5219 42.324C98.7999 42 98.9239 41.641 98.9069 41.239C98.8839 40.779 98.6799 40.401 98.2959 40.097C97.9079 39.796 97.3379 39.663 96.5879 39.702C95.8889 39.731 95.3679 39.917 95.0289 40.255C94.6909 40.585 94.5329 41.005 94.5569 41.51C94.5859 42.14 94.8949 42.693 95.4799 43.166L95.3029 44.958L88.8359 44.181L89.0099 38.314L91.0619 38.212L91.2619 42.357L93.2229 42.605C92.9529 42.128 92.8069 41.633 92.7809 41.118C92.7329 40.148 93.0489 39.302 93.7249 38.595C94.4019 37.883 95.3069 37.499 96.4339 37.449C97.3779 37.404 98.2349 37.637 98.9969 38.147C100.039 38.842 100.595 39.852 100.66 41.174C100.709 42.232 100.472 43.107 99.9319 43.8C99.3989 44.5 98.6539 44.936 97.7009 45.109ZM78.8669 68.461C76.7259 66.857 75.4679 64.904 75.4679 62.8C75.4679 61.772 75.7679 60.778 76.3279 59.842C77.3179 61.504 79.1249 62.976 81.4989 64.132C80.4869 65.48 79.6039 66.929 78.8669 68.461ZM102.254 59.032C113.646 59.032 122.88 68.267 122.88 79.658C122.88 91.05 113.646 100.285 102.254 100.285C90.8619 100.285 81.6279 91.05 81.6279 79.658C81.6279 68.268 90.8619 59.032 102.254 59.032ZM94.5399 73.734C93.9409 73.734 93.4859 73.912 93.1679 74.25C92.8509 74.598 92.6889 75.088 92.6889 75.719C92.6889 76.353 92.8499 76.848 93.1679 77.192C93.4859 77.536 93.9409 77.711 94.5399 77.711C95.1459 77.711 95.6049 77.536 95.9239 77.192C96.2419 76.838 96.3919 76.353 96.3919 75.719C96.3919 75.088 96.2429 74.598 95.9239 74.25C95.6149 73.912 95.1519 73.734 94.5399 73.734ZM109.97 82.691C109.365 82.691 108.906 82.866 108.586 83.21C108.271 83.564 108.107 84.042 108.107 84.684C108.107 85.315 108.27 85.804 108.586 86.152C108.905 86.496 109.364 86.669 109.97 86.669C110.565 86.669 111.025 86.49 111.343 86.152C111.66 85.804 111.822 85.315 111.822 84.684C111.822 84.042 111.661 83.558 111.343 83.21C111.033 82.862 110.57 82.691 109.97 82.691ZM109.968 79.505C111.618 79.505 112.944 79.981 113.951 80.917C114.952 81.861 115.46 83.113 115.46 84.677C115.46 86.237 114.952 87.493 113.951 88.432C112.943 89.376 111.618 89.844 109.968 89.844C108.314 89.844 106.986 89.376 105.978 88.432C104.976 87.488 104.475 86.237 104.475 84.677C104.475 83.114 104.976 81.862 105.978 80.917C106.985 79.98 108.313 79.505 109.968 79.505ZM94.5409 70.548C96.1909 70.548 97.5229 71.018 98.5299 71.962C99.5309 72.905 100.034 74.156 100.034 75.717C100.034 77.28 99.5309 78.53 98.5299 79.475C97.5229 80.416 96.1909 80.888 94.5409 80.888C92.8909 80.888 91.5639 80.413 90.5579 79.475C89.5529 78.531 89.0489 77.281 89.0489 75.717C89.0489 74.156 89.5529 72.9 90.5579 71.962C91.5639 71.018 92.8909 70.548 94.5409 70.548ZM106.594 71.285H111.065L97.9749 89.092H93.5009L106.594 71.285ZM76.4769 76.794C75.8239 75.791 75.4679 74.716 75.4679 73.598C75.4679 72.57 75.7679 71.576 76.3279 70.641C76.6279 71.144 77.0039 71.629 77.4459 72.095C76.9839 73.607 76.6549 75.179 76.4769 76.794ZM76.0969 40.894C78.2349 36.663 85.5899 33.54 94.3319 33.54C104.745 33.54 113.197 37.971 113.197 43.431C113.197 48.888 104.745 53.321 94.3319 53.321C85.6469 53.321 78.3279 50.238 76.1389 46.047C75.0059 44.166 76.0839 40.875 76.0969 40.894ZM94.3319 35.56C102.895 35.56 109.834 38.286 109.834 41.642C109.834 45.004 102.896 47.723 94.3319 47.723C85.7699 47.723 78.8309 44.997 78.8309 41.642C78.8309 38.28 85.7709 35.56 94.3319 35.56ZM112.406 50.028C112.924 50.93 113.197 51.881 113.197 52.866C113.197 53.88 112.905 54.857 112.364 55.779C110.816 55.12 109.192 54.608 107.509 54.259C109.769 53.104 111.478 51.654 112.406 50.028ZM84.0899 61.172C78.9029 59.41 75.4679 56.351 75.4679 52.866C75.4679 51.881 75.7479 50.924 76.2579 50.028C78.1799 53.392 83.4279 56.001 90.0009 56.811C87.8279 57.981 85.8379 59.454 84.0899 61.172ZM51.1549 44.977V59.504H64.1889V59.465C64.1889 55.459 62.5489 51.817 59.9089 49.176C57.6079 46.874 54.5459 45.331 51.1549 44.977ZM51.1549 62.573V75.187H64.1889V62.573H51.1549ZM48.0849 75.18V62.573H35.0519V75.187H48.0859L48.0849 75.18ZM48.0849 59.504V44.977C44.6859 45.34 41.6329 46.874 39.3319 49.176C36.6899 51.817 35.0509 55.459 35.0509 59.465V59.504H48.0849ZM28.7449 81.584H69.2159C69.5069 82.686 69.8519 83.71 70.2649 84.652H28.7449V81.584ZM49.6199 41.827C54.4739 41.827 58.8839 43.813 62.0729 47.003C65.2709 50.201 67.2499 54.61 67.2499 59.456V78.24H31.9819V59.456C31.9819 54.602 33.9689 50.193 37.1589 47.003C40.3569 43.813 44.7669 41.827 49.6199 41.827ZM75.7219 2.86797L89.5879 3.43397V22.163L75.7219 13.012V2.86797Z" fill="#143A5E"/>
</g>
<defs>
<clipPath id="clip0_23_135">
<rect width="122.88" height="100.285" fill="white"/>
</clipPath>
</defs>
</svg>
