<svg width="85" height="100" viewBox="0 0 85 100" fill="none" xmlns="http://www.w3.org/2000/svg">
<g clip-path="url(#clip0_23_157)">
<path fill-rule="evenodd" clip-rule="evenodd" d="M42.4553 88.2406C44.4314 88.2406 46.032 89.6973 46.032 91.4958C46.032 93.2943 44.4314 94.751 42.4553 94.751C40.4792 94.751 38.8786 93.2943 38.8786 91.4958C38.8786 89.6973 40.4792 88.2406 42.4553 88.2406ZM19.3499 54.9154C19.2962 54.8177 19.2336 54.7282 19.1621 54.6387C18.8491 54.1748 18.5362 53.7109 18.2232 53.182C17.9103 52.6123 17.5973 52.0752 17.3201 51.5788C17.0429 51.0417 16.7747 50.472 16.5422 49.9023C16.3455 49.4059 16.113 48.8363 15.8805 48.1608C15.5318 47.2005 14.5482 46.5983 13.4931 46.5983H6.72417C6.49169 46.5983 6.2592 46.5658 6.09825 46.4925C5.94624 46.4193 5.74953 46.3135 5.63328 46.1751C5.48127 46.0286 5.35609 45.8903 5.28456 45.752C5.20408 45.6136 5.16831 45.3939 5.16831 45.1823V37.4186C5.16831 37.207 5.20408 37.028 5.24879 36.8815C5.32927 36.735 5.44551 36.5641 5.64223 36.3851C5.79423 36.2467 5.95519 36.1328 6.1072 36.1003C6.26815 36.027 6.50063 35.9945 6.73312 35.9945H12.9476C14.1995 35.9945 15.2188 35.1725 15.4513 34.1064C15.6033 33.5042 15.7643 32.9346 15.9163 32.43C16.113 31.8604 16.3097 31.3232 16.5422 30.7536C16.7747 30.2165 17.0072 29.6468 17.3201 29.1178C17.5973 28.5482 17.9103 28.0518 18.1785 27.5553C18.724 26.6276 18.5272 25.5615 17.7493 24.8535L12.9029 20.402C12.8671 20.3695 12.8671 20.3695 12.8224 20.3695C12.6704 20.2311 12.5452 20.0846 12.4737 19.9463C12.3932 19.8079 12.3932 19.6615 12.3932 19.4499C12.3932 19.2383 12.429 19.0592 12.5095 18.9128C12.5899 18.7337 12.7062 18.5954 12.9029 18.4163L18.8849 13.0046C19.0816 12.8255 19.2336 12.7197 19.4304 12.6465C19.5913 12.5732 19.7791 12.5407 20.0205 12.5407C20.253 12.5407 20.4497 12.5732 20.6107 12.6465C20.7716 12.7197 20.9594 12.8255 21.1203 12.9639H21.1561L25.5733 16.9841C26.4317 17.7653 27.7998 17.8711 28.7834 17.2363C29.2931 16.9515 29.8028 16.6667 30.384 16.3818C31.0099 16.097 31.6 15.8122 32.1455 15.5599C32.7356 15.3076 33.3616 15.0635 33.9875 14.8519C34.5329 14.6729 35.1588 14.4613 35.901 14.2497C36.9561 13.9323 37.6178 13.0371 37.6178 12.0768V5.9082C37.6178 5.69662 37.6536 5.48503 37.7341 5.33854C37.8145 5.2002 37.9308 5.05371 38.047 4.91536C38.208 4.77702 38.36 4.66309 38.512 4.63053C38.664 4.55729 38.9054 4.52474 39.1379 4.52474H45.1467H45.2183H45.8353C46.0677 4.52474 46.3002 4.55729 46.4612 4.63053C46.6132 4.66309 46.7741 4.77702 46.9261 4.91536C47.0424 5.05371 47.1586 5.2002 47.2391 5.33854C47.3196 5.47689 47.3554 5.69662 47.3554 5.9082V12.0687C47.3554 13.029 48.017 13.916 49.0722 14.2415C49.8143 14.4531 50.4402 14.6647 50.9857 14.8438C51.6116 15.0553 52.2375 15.3076 52.8277 15.5518C53.3731 15.804 53.9633 16.0889 54.5892 16.3737C55.1794 16.6585 55.6801 16.9434 56.1898 17.2282C57.1644 17.8711 58.5325 17.7653 59.3999 16.9759L63.8171 12.9557H63.8528C64.0048 12.8174 64.2016 12.7035 64.3625 12.6383C64.5145 12.5651 64.7112 12.5326 64.9527 12.5326C65.1851 12.5326 65.3819 12.5651 65.5428 12.6383C65.7395 12.7116 65.8915 12.8174 66.0883 12.9964L72.0703 18.4082C72.267 18.5872 72.3832 18.7256 72.4637 18.9046C72.5442 19.043 72.5799 19.222 72.5799 19.4417C72.5799 19.6533 72.5799 19.7998 72.4995 19.9382C72.419 20.0846 72.3028 20.223 72.1507 20.3613C72.115 20.3613 72.115 20.3613 72.0703 20.3939L67.2239 24.8454C66.4459 25.5534 66.2492 26.6276 66.7947 27.5472C67.0718 28.0436 67.3848 28.54 67.6531 29.1097C67.966 29.6468 68.1985 30.2165 68.431 30.7454C68.6635 31.3151 68.8602 31.8522 69.0569 32.4219C69.2089 32.9183 69.3699 33.488 69.5219 34.0983C69.7544 35.1644 70.7737 35.9863 72.0256 35.9863H78.2401C78.4725 35.9863 78.705 36.0189 78.866 36.0921C79.018 36.1247 79.1789 36.2305 79.3309 36.377C79.5277 36.556 79.6439 36.735 79.7244 36.8734C79.7602 37.0117 79.8049 37.1908 79.8049 37.4105V45.1742C79.8049 45.3857 79.7691 45.5973 79.6886 45.7438C79.6081 45.8903 79.4919 46.0286 79.3399 46.167C79.2236 46.3053 79.0269 46.4193 78.8749 46.4844C78.714 46.5576 78.4815 46.5902 78.249 46.5902H71.4801C70.425 46.5902 69.4503 47.1924 69.0927 48.1527C68.8602 48.8281 68.6277 49.3978 68.431 49.8942C68.1985 50.4639 67.9213 51.0335 67.6531 51.5706C67.3759 52.0671 67.0629 52.6042 66.7499 53.1738C66.437 53.7109 66.124 54.1748 65.8111 54.6305C65.7395 54.7201 65.6769 54.8096 65.6233 54.9072H71.5427C71.7931 54.4515 72.0434 53.9632 72.3028 53.4587C72.6157 52.8158 72.9287 52.181 73.2059 51.5381C73.2416 51.4323 73.3221 51.2858 73.3668 51.18H78.3742C79.2773 51.18 80.1357 51.0417 80.9136 50.7568C81.6916 50.472 82.4427 50.0081 83.0686 49.4385C83.6945 48.8688 84.2042 48.2259 84.5171 47.4772C84.8301 46.7285 84.9821 45.9798 84.9821 45.166V37.4105C84.9821 36.6292 84.7854 35.848 84.4724 35.1318C84.1595 34.4238 83.6945 33.7809 83.0686 33.2113L83.0328 33.1787C82.4069 32.6091 81.7005 32.1452 80.9226 31.8604C80.1446 31.543 79.2773 31.3965 78.3831 31.3965H74.1179C74.1179 31.2907 74.0822 31.2174 74.0375 31.1117C73.805 30.4362 73.5725 29.7607 73.2953 29.1178C72.9823 28.4424 72.7051 27.7995 72.3922 27.1973C72.3564 27.124 72.2759 27.0182 72.2402 26.9124L75.7632 23.6735C76.4249 23.1364 76.8988 22.5016 77.2475 21.7855C77.5605 21.0775 77.7572 20.2881 77.7572 19.4743C77.7572 18.6523 77.6052 17.9118 77.2475 17.1631C76.8988 16.4551 76.4249 15.8122 75.799 15.2425H75.7632L69.7812 9.83073C69.1553 9.26107 68.4489 8.83789 67.6262 8.51237C66.8036 8.19499 65.981 8.0485 65.0868 8.0485C64.2284 8.0485 63.37 8.18685 62.5473 8.51237C61.7247 8.7972 61.0183 9.26107 60.3924 9.83073L57.3433 12.5732L57.1108 12.4674C56.4848 12.1501 55.7785 11.8652 55.0363 11.5397C54.3299 11.2549 53.6324 10.9701 52.926 10.7178C52.8098 10.6852 52.6489 10.612 52.5326 10.5713V6.014C52.5326 5.19206 52.3806 4.41081 52.0676 3.7028C51.7547 2.98665 51.245 2.3112 50.6191 1.74154C49.9574 1.17188 49.251 0.708008 48.4641 0.423177C47.6504 0.138346 46.8278 0 45.9247 0H42.8398H42.1513H39.0664C38.1633 0 37.3496 0.138346 36.5269 0.423177C35.749 0.708008 35.0426 1.17188 34.372 1.74154C33.7461 2.3112 33.2364 2.98665 32.9234 3.7028C32.6105 4.41081 32.4584 5.2002 32.4584 6.014V10.5713C32.3422 10.6038 32.1813 10.6771 32.065 10.7178C31.3586 10.9701 30.6612 11.2549 29.9548 11.5397C29.2126 11.8571 28.5062 12.1419 27.8803 12.4674L27.6478 12.5732L24.5987 9.83073C23.9728 9.26107 23.2664 8.7972 22.4437 8.51237C21.6211 8.19499 20.7627 8.0485 19.9043 8.0485C19.0012 8.0485 18.1875 8.18685 17.3648 8.51237C16.5422 8.82975 15.8358 9.26107 15.2099 9.83073L9.22786 15.2425H9.19209C8.56617 15.8122 8.1012 16.4551 7.74353 17.1631C7.3948 17.9036 7.23385 18.6523 7.23385 19.4661C7.23385 20.2881 7.43057 21.0693 7.74353 21.7773C8.09226 22.4854 8.56617 23.1283 9.22786 23.6654L12.7509 26.9043C12.7151 27.0101 12.6347 27.1159 12.5989 27.1891C12.2859 27.7913 12.0087 28.4342 11.6958 29.1097C11.4186 29.7526 11.1861 30.4281 10.9536 31.1035C10.9178 31.2093 10.8731 31.2826 10.8731 31.3883H6.60793C5.70482 31.3883 4.84641 31.5348 4.06848 31.8522C3.29055 32.137 2.58416 32.6009 1.95824 33.1706L1.92247 33.2031C1.29655 33.7728 0.83158 34.4157 0.51862 35.1237C0.196718 35.8398 0 36.6292 0 37.4105V45.166C0 45.988 0.152009 46.7285 0.464969 47.4772C0.77793 48.2259 1.28761 48.8688 1.91353 49.4385C2.53945 50.0081 3.28161 50.472 4.06848 50.7568C4.84641 51.0417 5.71376 51.18 6.60793 51.18H11.6153C11.6511 51.2858 11.7315 51.4323 11.7762 51.5381C12.0534 52.181 12.3664 52.8158 12.6794 53.4587C12.9476 53.9714 13.189 54.4596 13.4394 54.9072H19.3499V54.9154ZM29.0338 47.7132C28.2916 47.7376 27.7193 47.876 27.3348 48.1201C27.1113 48.2585 26.9503 48.4294 26.852 48.6328C26.7357 48.8607 26.6821 49.1374 26.691 49.4548C26.7179 50.3825 27.2544 51.6032 28.2916 53.0111L28.3095 53.0273L31.6716 57.902C33.0218 59.8551 34.4346 61.849 36.1961 63.3057C37.8861 64.7135 39.9337 65.6657 42.652 65.6738C45.5849 65.682 47.7398 64.6891 49.4835 63.208C51.2987 61.6618 52.7293 59.5459 54.1332 57.43L57.9245 51.7497C58.6309 50.2848 58.8902 49.3001 58.7292 48.7223C58.6309 48.3805 58.2195 48.2096 57.5042 48.1771C57.3522 48.1689 57.2002 48.1689 57.0392 48.1689C56.8693 48.1771 56.6905 48.1852 56.5117 48.2015C56.4133 48.2096 56.315 48.2015 56.2166 48.1852C55.8768 48.2015 55.5281 48.1771 55.1794 48.1364L56.4759 42.9036C46.8457 44.2871 39.6386 37.7767 29.454 41.6016L30.1872 47.762C29.7849 47.7702 29.3914 47.762 29.0338 47.7132ZM58.8008 46.6146C59.7307 46.875 60.3298 47.4121 60.5802 48.2829C60.8484 49.2513 60.5533 50.6104 59.6592 52.4658C59.6413 52.4984 59.6234 52.5309 59.6055 52.5635L55.7695 58.3089C54.2941 60.5225 52.7919 62.7441 50.789 64.4531L50.6906 64.5345C50.8784 64.7868 51.093 65.0635 51.3076 65.3564C51.9693 66.2435 52.7293 67.2607 53.4357 68.0501C57.6026 70.4102 66.7678 71.0449 70.3535 72.8597C79.474 77.4902 76.1477 88.737 76.8094 96.8262C76.6127 98.7386 75.4234 99.8372 73.0807 100H70.5502L73.3311 80.8187C73.5457 79.3213 72.3832 78.1006 70.9436 78.1006H51.3881C51.8709 74.9675 52.2196 71.9727 52.3895 69.7103C51.4775 68.7907 50.5028 67.4886 49.6623 66.3656C49.4745 66.1214 49.2957 65.8773 49.1258 65.6576C47.3643 66.7318 45.2719 67.3991 42.652 67.391C39.7281 67.3828 37.4479 66.4714 35.5612 65.0798C35.0337 66.5202 34.2557 68.5059 33.5046 69.458C33.442 69.5394 33.3616 69.6126 33.2721 69.6696C33.594 72.0052 34.0411 75 34.5687 78.1087H14.5392C13.1086 78.1087 11.9372 79.3294 12.1518 80.8268L14.9327 100.008H12.3932C10.0505 99.8454 8.86124 98.7467 8.66453 96.8343C8.78077 88.265 5.20408 77.8971 15.1204 72.8678C18.7508 71.0205 28.1128 70.3939 32.1991 67.9606C32.8251 66.8945 33.5136 64.974 33.9338 63.8346C33.9785 63.7044 33.907 63.916 33.9785 63.7288C32.4763 62.264 31.2513 60.5306 30.071 58.8216L26.7089 53.9551C25.475 52.2868 24.8401 50.7568 24.7954 49.5036C24.7775 48.9176 24.8848 48.3805 25.1262 47.9085C25.3766 47.4202 25.7611 47.0052 26.2797 46.6878C26.5211 46.5413 26.7983 46.4111 27.0934 46.3053C26.8788 43.6605 26.7894 40.332 26.9325 37.5488C27.004 36.8896 27.1471 36.2223 27.3438 35.5632C28.5777 31.5592 32.3601 28.6702 36.6789 27.3112C38.7713 26.652 37.9665 25.0814 40.0857 25.1872C45.111 25.4395 52.8545 28.3854 55.8321 31.5104C60.0168 35.8805 58.9349 41.2679 58.8008 46.6146ZM35.8027 73.3968C34.1037 71.639 33.9607 69.7998 35.8027 67.8548C37.9308 68.3431 39.8801 69.1813 41.6774 70.3125C42.0619 70.1579 42.5179 70.0928 42.956 70.1253C44.8248 68.9209 47.2033 68.4326 49.2868 67.5293C51.7726 69.7347 51.5043 71.7611 49.0632 73.641C47.6951 73.3561 46.3986 72.9167 45.1557 72.3389C45.1199 72.6318 45.0394 72.9492 44.8874 73.291L45.5223 78.1006H40.4523L41.0872 73.291C40.6938 72.6807 40.5418 72.1598 40.5507 71.7285C39.0753 72.5342 37.4748 73.055 35.8027 73.3968Z" fill="#143A5E"/>
</g>
<defs>
<clipPath id="clip0_23_157">
<rect width="85" height="100" fill="white"/>
</clipPath>
</defs>
</svg>
