<svg width="86" height="100" viewBox="0 0 86 100" fill="none" xmlns="http://www.w3.org/2000/svg">
<path d="M17.6735 62.1787C19.7696 66.0903 22.1861 69.845 25.3332 73.2742C28.4802 76.7209 32.3915 79.8595 37.4661 82.5331C37.8426 82.7249 38.1967 82.7249 38.517 82.5913C39.0059 82.3994 39.4892 81.9926 39.9781 81.4869C40.3546 81.0975 40.8211 80.4814 41.31 79.8014C43.26 77.151 45.6709 73.8555 49.0821 75.5003C49.1551 75.541 49.2113 75.5759 49.29 75.6166L60.653 82.3762C60.6924 82.3936 60.7261 82.4343 60.7654 82.4518C62.2659 83.5154 62.8841 85.1603 62.9009 87.0202C62.9009 88.9208 62.2265 91.0481 61.2319 92.8499C59.9225 95.2329 57.9949 96.8022 55.7639 97.8484C53.6453 98.8539 51.2906 99.4002 49.0202 99.749C45.463 100.29 42.1305 99.9408 38.7193 98.8597C35.3868 97.7961 32.0319 96.035 28.3622 93.6868L28.0981 93.5124C26.4121 92.4256 24.597 91.2631 22.8155 89.8914C16.291 84.7999 9.64293 77.4416 5.31575 69.3452C1.68542 62.5449 -0.303957 55.2098 0.786266 48.2177C1.38758 44.3816 2.97795 40.9001 5.74847 38.5926C8.16495 36.5758 11.4244 35.4773 15.6335 35.8609C16.1225 35.9016 16.5496 36.1922 16.7743 36.6165L24.0575 49.3569C25.1252 50.7925 25.2545 52.2049 24.6757 53.6173C24.1867 54.7797 23.2145 55.8434 21.8883 56.8489C21.4949 57.1976 21.0285 57.5463 20.5395 57.9125C18.9098 59.1331 17.0553 60.5455 17.696 62.2136L17.6735 62.1787Z" fill="#143A5E"/>
<g clip-path="url(#clip0_26_5)">
<path d="M62.5302 4.02261H41.5178C40.1469 4.02261 38.8815 4.26913 37.7476 4.76114C36.6142 5.25368 35.5597 5.99273 34.6101 6.9778C33.661 7.96286 32.949 9.05738 32.4744 10.2342C31.9999 11.4106 31.7629 12.7245 31.7629 14.1474V35.4362C31.7629 36.8591 31.9999 38.1725 32.4744 39.3494C32.949 40.5263 33.661 41.6203 34.6101 42.6059C35.5853 43.5914 36.6403 44.3566 37.7737 44.822C38.9076 45.3145 40.1469 45.561 41.5178 45.561H50.5346C51.5897 45.561 52.4594 46.4638 52.4594 47.5583C52.4594 47.8048 52.4067 48.0237 52.354 48.2426C52.011 49.5565 51.6419 50.87 51.2201 52.1281C50.7716 53.4697 50.2976 54.7279 49.7698 55.96C49.5062 56.5891 49.1898 57.1905 48.8474 57.8207C50.6928 56.9716 52.4328 55.9871 54.0412 54.892C55.7285 53.7428 57.3103 52.457 58.76 51.0612C60.2364 49.6384 61.5545 48.0784 62.7672 46.409C63.1363 45.8899 63.7163 45.6163 64.2963 45.6163H72.0477C73.4186 45.6163 74.6579 45.3698 75.7913 44.8772C76.9252 44.3847 77.9797 43.6456 78.9554 42.6611C79.9045 41.6755 80.6165 40.5815 81.0911 39.4046C81.5651 38.2278 81.8026 36.9138 81.8026 35.4915V14.2021C81.8026 12.7793 81.5651 11.4658 81.0911 10.289C80.6165 9.1121 79.9045 8.01811 78.9554 7.03252C78.0063 6.04694 76.9518 5.3084 75.8179 4.81639C74.684 4.32386 73.4191 4.07733 72.0477 4.07733H62.5302V4.02261ZM51.0358 0.0276235H72.0477C73.8931 0.0276235 75.6336 0.383602 77.2681 1.06741C78.876 1.75123 80.3529 2.79154 81.6711 4.15968C82.9897 5.52783 83.9916 7.06015 84.6509 8.72955C85.3097 10.3989 85.6522 12.2044 85.6522 14.1479V35.4362C85.6522 37.3798 85.3092 39.1852 84.6509 40.8546C83.9916 42.523 82.9897 44.0553 81.6711 45.4245C80.3529 46.7926 78.8766 47.8043 77.2681 48.5162C75.6602 49.2006 73.9197 49.5565 72.0477 49.5565H65.2459C64.0598 51.116 62.7678 52.593 61.3969 53.9346C59.7623 55.5217 58.0223 56.9435 56.1503 58.2027C54.2782 59.4885 52.2746 60.6112 50.1389 61.5681C48.0298 62.526 45.7626 63.3198 43.3899 63.9765C42.7044 64.1678 41.9663 63.9489 41.4651 63.374C40.7535 62.5537 40.8324 61.2955 41.6233 60.5564C42.7306 59.5437 43.6796 58.504 44.4444 57.4636C45.1826 56.452 45.7892 55.4112 46.2371 54.3448V54.3172C46.7383 53.1679 47.1862 51.9911 47.5819 50.8142C47.714 50.404 47.8456 49.9662 47.9776 49.5284H41.4917C39.6463 49.5284 37.9063 49.1719 36.2713 48.4881C34.6628 47.8038 33.1865 46.7645 31.8683 45.3963C30.5501 44.0282 29.5483 42.4954 28.889 40.8265C28.2302 39.1305 27.8877 37.3246 27.8877 35.4091V14.1198C27.8877 12.2039 28.2302 10.3979 28.8895 8.7014C29.5488 7.032 30.5507 5.49968 31.8688 4.13154C33.187 2.76339 34.6633 1.7236 36.2718 1.03927C37.8802 0.354936 39.6197 0 41.4917 0H51.0092L51.0358 0.0276235Z" fill="#143A5E"/>
<path fill-rule="evenodd" clip-rule="evenodd" d="M70.2771 37.2348V38.4997C70.2771 38.8273 70.0197 39.0898 69.7048 39.0898H43.6663C43.3487 39.0898 43.094 38.8244 43.094 38.4997V37.2348V30.5489V23.4056C42.4534 23.6597 41.8537 23.6654 41.3554 23.4903C40.9666 23.3548 40.638 23.112 40.3971 22.7986C40.1562 22.4852 40.0028 22.104 39.9563 21.6833C39.8851 21.0311 40.074 20.2942 40.6134 19.6024C40.6408 19.5686 40.6709 19.5347 40.7065 19.5064L56.3269 6.93084C56.5295 6.73885 56.8416 6.71908 57.0661 6.89978L72.7249 19.4528C72.7495 19.4726 72.7714 19.4923 72.7933 19.5177C73.5189 20.3224 73.6996 21.2146 73.5244 21.9685C73.4367 22.3412 73.2642 22.6772 73.026 22.951C72.7878 23.2277 72.4839 23.4423 72.1389 23.5694C71.5913 23.7727 70.9397 23.767 70.2798 23.4451V30.5489V37.2348H70.2771ZM41.4649 20.393C41.161 20.8024 41.0542 21.2118 41.0898 21.5563C41.1117 21.7539 41.1802 21.929 41.2897 22.0701C41.3965 22.2085 41.5416 22.3129 41.7168 22.3751C42.0153 22.4795 42.4013 22.4513 42.8422 22.2367L56.4747 11.5415C56.6856 11.3749 56.9731 11.3834 57.1729 11.5443L70.4167 22.1605C70.4222 22.1661 70.4277 22.1718 70.4359 22.1746C70.9205 22.536 71.386 22.5925 71.7474 22.4598C71.9144 22.3976 72.0595 22.296 72.1718 22.1633C72.2868 22.0306 72.3689 21.8725 72.41 21.6946C72.5003 21.305 72.3908 20.825 71.9856 20.3563L56.7157 8.11386L41.4649 20.393ZM48.0444 28.0897H55.3549C55.6396 28.0897 55.8724 28.3241 55.8724 28.612V34.5102C55.8724 34.7982 55.6396 35.0325 55.3549 35.0325H48.0444C47.7596 35.0325 47.5269 34.7982 47.5269 34.5102V28.612C47.5296 28.3241 47.7596 28.0897 48.0444 28.0897ZM58.4844 27.5702H65.3486C65.6553 27.5702 65.9045 27.8356 65.9045 28.1631V37.9096H69.1298V22.7478C69.1298 22.7082 69.1326 22.6715 69.1408 22.6348L56.817 12.7556L44.2194 22.6405C44.2331 22.6885 44.2385 22.7393 44.2385 22.7929V37.9068H57.9286V28.1603C57.9286 27.8328 58.1778 27.5702 58.4844 27.5702ZM64.7928 28.7532H59.043V37.8955H64.7928V28.7532ZM54.8374 32.0821H52.124V33.9879H54.8374V32.0821ZM51.111 32.0821H48.5619V33.9879H51.111V32.0821ZM48.5619 31.0374H51.111V29.1344H48.5619V31.0374ZM52.124 31.0374H54.8374V29.1344H52.124V31.0374ZM56.6089 17.0331C57.5809 17.0331 58.3694 17.8463 58.3694 18.8486C58.3694 19.8509 57.5809 20.6641 56.6089 20.6641C55.6369 20.6641 54.8484 19.8509 54.8484 18.8486C54.8484 17.8434 55.6369 17.0331 56.6089 17.0331Z" fill="#143A5E"/>
</g>
<defs>
<clipPath id="clip0_26_5">
<rect width="57.764" height="64.0448" fill="white" transform="translate(27.8877)"/>
</clipPath>
</defs>
</svg>
