<svg id="Layer_1" enable-background="new 0 0 512 512" height="512" viewBox="0 0 512 512" width="512" xmlns="http://www.w3.org/2000/svg"><g><g><path d="m256 364.31c-90.52 0-164.15-73.64-164.15-164.15 0-90.52 73.63-164.16 164.15-164.16 90.51 0 164.15 73.64 164.15 164.15 0 90.52-73.64 164.16-164.15 164.16zm0-318.31c-85 0-154.15 69.15-154.15 154.15s69.15 154.16 154.15 154.16 154.15-69.15 154.15-154.15-69.15-154.16-154.15-154.16z"/></g><g><path d="m256 324.97c-68.83 0-124.82-55.99-124.82-124.82s55.99-124.82 124.82-124.82 124.82 55.99 124.82 124.82-55.99 124.82-124.82 124.82zm0-239.64c-63.31 0-114.82 51.51-114.82 114.82s51.51 114.82 114.82 114.82 114.82-51.51 114.82-114.82-51.51-114.82-114.82-114.82z"/></g><g><g><path d="m324.61 476c-.01 0-.02 0-.03 0-3.38-.01-6.39-2.03-7.68-5.15l-45.9-110.83c-1.06-2.55.15-5.48 2.71-6.53 2.55-1.06 5.47.15 6.53 2.71l44.39 107.15 17.12-40.85c1.76-4.19 6.61-6.21 10.83-4.5l41.01 16.78-44.39-107.15c-1.06-2.55.15-5.48 2.71-6.53 2.55-1.06 5.47.15 6.53 2.71l45.91 110.84c1.29 3.13.58 6.69-1.81 9.08s-5.94 3.1-9.06 1.82l-43.14-17.66-18.03 43c-1.31 3.11-4.33 5.11-7.7 5.11z"/></g><g><path d="m187.39 476c-3.37 0-6.39-2-7.69-5.11l-18.03-43.01-43.15 17.66c-3.11 1.28-6.67.57-9.06-1.82s-3.1-5.95-1.81-9.08l45.92-110.84c1.06-2.55 3.98-3.76 6.53-2.71 2.55 1.06 3.76 3.98 2.71 6.53l-44.38 107.15 40.98-16.77c4.24-1.71 9.09.31 10.85 4.5l17.12 40.85 44.39-107.15c1.06-2.55 3.98-3.76 6.53-2.71 2.55 1.06 3.76 3.98 2.71 6.53l-45.91 110.84c-1.28 3.11-4.3 5.13-7.67 5.14-.02 0-.03 0-.04 0zm-1.54-8.97s0 .01 0 0z"/></g></g><g><path d="m256 65.67c-1.31 0-2.6-.54-3.54-1.47-.23-.23-.44-.48-.62-.76-.18-.27-.33-.56-.46-.86-.12-.3-.22-.62-.28-.94-.07-.32-.1-.65-.1-.97 0-.33.03-.66.1-.98.06-.32.16-.63.28-.94.13-.3.28-.59.46-.86s.39-.53.62-.76.49-.44.76-.62c.28-.18.57-.34.87-.46s.61-.22.93-.28c1.63-.33 3.35.2 4.52 1.36.23.23.44.49.62.76s.33.56.46.86c.12.31.22.62.28.94.07.32.1.65.1.98 0 1.31-.53 2.6-1.46 3.53-.94.93-2.23 1.47-3.54 1.47z"/></g><g><path d="m202.62 76.28c-1.32 0-2.6-.53-3.54-1.46-.23-.23-.43-.49-.62-.76-.18-.27-.33-.56-.46-.86-.12-.3-.22-.62-.28-.94-.07-.32-.1-.65-.1-.97 0-.33.03-.66.1-.98.06-.32.16-.64.28-.94.13-.3.28-.59.46-.86.19-.27.39-.53.62-.76 1.17-1.16 2.89-1.69 4.52-1.37.32.07.63.16.93.29.3.12.6.28.87.46s.53.39.76.62c.93.93 1.46 2.22 1.46 3.54 0 .32-.03.65-.1.97-.06.32-.16.64-.28.94-.13.3-.28.59-.46.86s-.39.53-.62.76-.49.44-.76.62-.57.34-.87.46c-.3.13-.61.22-.93.29-.32.06-.65.09-.98.09z"/></g><g><path d="m157.37 106.52c-.33 0-.66-.03-.98-.1-.32-.06-.63-.16-.93-.28-.31-.13-.6-.28-.87-.46s-.53-.39-.76-.62-.44-.49-.62-.76-.33-.56-.46-.87c-.12-.3-.22-.61-.28-.93-.07-.32-.1-.65-.1-.98 0-.32.03-.65.1-.98.06-.31.16-.63.28-.93.13-.3.28-.59.46-.86.18-.28.39-.53.62-.77.23-.23.49-.43.76-.62.27-.18.56-.33.87-.46.3-.12.61-.22.93-.28 1.63-.33 3.35.2 4.51 1.36.23.24.44.49.62.77.19.27.34.56.46.86.13.3.23.62.29.93.06.33.1.66.1.98 0 .33-.04.66-.1.98s-.16.63-.29.93c-.12.31-.27.6-.46.87-.18.27-.39.53-.62.76-.93.93-2.22 1.46-3.53 1.46z"/></g><g><path d="m127.13 151.78c-.33 0-.65-.04-.98-.1-.32-.07-.63-.16-.93-.29-.3-.12-.59-.28-.87-.46-.27-.18-.52-.39-.76-.62-.23-.23-.43-.49-.62-.76-.18-.27-.33-.56-.46-.86-.12-.3-.22-.62-.28-.94-.07-.32-.1-.65-.1-.98 0-.32.03-.65.1-.97.06-.32.16-.64.28-.94.13-.3.28-.59.46-.86.19-.28.39-.53.62-.76.24-.23.49-.44.76-.62.28-.18.57-.34.87-.46.3-.13.61-.22.93-.29.65-.13 1.31-.13 1.96 0 .32.07.63.16.93.29.3.12.6.28.87.46s.53.39.76.62.44.49.62.76.33.56.46.86c.12.3.22.62.28.94.07.32.1.65.1.97 0 .33-.03.66-.1.98-.06.32-.16.64-.28.94-.13.3-.28.59-.46.86s-.39.53-.62.76-.49.44-.76.62-.57.34-.87.46c-.3.13-.61.22-.93.29-.32.06-.65.1-.98.1z"/></g><g><path d="m116.51 205.15c-.32 0-.65-.03-.97-.09-.32-.07-.64-.16-.94-.29-.3-.12-.59-.28-.86-.46-.28-.18-.53-.39-.76-.62s-.44-.49-.62-.76-.34-.56-.46-.86c-.13-.3-.22-.62-.29-.94-.06-.32-.1-.65-.1-.98 0-1.31.54-2.6 1.47-3.53.23-.23.48-.44.76-.62.27-.18.56-.34.86-.46.3-.13.62-.22.94-.29.64-.13 1.3-.13 1.95 0 .32.07.63.16.93.29.31.12.6.28.87.46s.53.39.76.62c.93.93 1.46 2.22 1.46 3.53 0 .33-.03.66-.09.98-.07.32-.17.64-.29.94-.13.3-.28.59-.46.86s-.39.53-.62.76-.49.44-.76.62-.56.34-.87.46c-.3.13-.61.22-.93.29-.32.06-.65.09-.98.09z"/></g><g><path d="m127.13 258.53c-.33 0-.65-.03-.98-.09-.32-.07-.63-.16-.93-.29-.3-.12-.59-.28-.86-.46-.28-.18-.53-.39-.77-.62-.93-.93-1.46-2.22-1.46-3.54 0-.32.03-.65.1-.97.06-.32.16-.64.28-.94.13-.3.28-.59.46-.86.19-.28.39-.53.62-.76.24-.23.49-.44.77-.62.27-.18.56-.34.86-.46.3-.13.61-.22.93-.29 1.63-.33 3.36.21 4.52 1.37.23.23.43.48.62.76.18.27.33.56.46.86.12.3.22.62.28.94.07.32.1.65.1.97 0 .33-.03.66-.1.98-.06.32-.16.63-.28.94-.13.3-.28.59-.46.86-.19.27-.39.53-.62.76-.93.93-2.22 1.46-3.54 1.46z"/></g><g><path d="m157.37 303.79c-1.32 0-2.61-.54-3.54-1.47-.23-.23-.44-.48-.62-.76-.18-.27-.33-.56-.46-.86-.12-.3-.22-.62-.28-.94-.07-.32-.1-.65-.1-.97 0-.33.03-.66.1-.98.06-.32.16-.63.28-.94.13-.3.28-.59.46-.86s.39-.53.62-.76c.93-.93 2.22-1.46 3.54-1.46 1.31 0 2.6.53 3.53 1.46.23.23.44.49.62.76s.34.56.46.86c.13.31.22.62.29.94.06.32.1.65.1.98 0 .32-.04.65-.1.97-.07.32-.16.64-.29.94-.12.3-.28.59-.46.86-.18.28-.39.53-.62.76-.93.93-2.22 1.47-3.53 1.47z"/></g><g><path d="m202.62 334.02c-1.32 0-2.6-.53-3.53-1.46-.23-.23-.44-.49-.63-.76-.18-.27-.33-.56-.46-.86-.12-.31-.22-.62-.28-.94-.07-.32-.1-.65-.1-.98 0-.32.03-.65.1-.97.06-.32.16-.64.28-.94.13-.3.28-.59.46-.86.19-.28.4-.53.63-.76 1.15-1.16 2.88-1.7 4.51-1.37.32.07.63.16.93.29.3.12.6.28.87.46s.53.39.76.62.44.48.62.76c.18.27.33.56.46.86.12.3.22.62.28.94.07.32.1.65.1.97 0 .33-.03.66-.1.98-.06.32-.16.63-.28.94-.13.3-.28.59-.46.86-.19.27-.39.53-.63.76-.23.23-.48.44-.75.62s-.57.34-.87.46c-.3.13-.61.22-.93.29-.32.06-.65.09-.98.09z"/></g><g><path d="m256 344.64c-.33 0-.65-.03-.98-.1-.32-.06-.63-.16-.93-.28-.3-.13-.59-.28-.86-.46-.28-.18-.53-.39-.76-.62-.94-.93-1.47-2.22-1.47-3.54 0-1.31.53-2.6 1.46-3.53.23-.23.49-.44.76-.63.28-.18.57-.33.87-.46.3-.12.61-.22.93-.28.65-.13 1.31-.13 1.96 0 .32.06.63.16.93.28.3.13.59.28.86.46.28.19.53.4.76.63.94.93 1.47 2.22 1.47 3.53 0 1.32-.53 2.61-1.47 3.54-.23.23-.48.44-.76.62-.27.18-.56.33-.86.46-.3.12-.61.22-.93.28-.32.07-.65.1-.98.1z"/></g><g><path d="m309.38 334.02c-.33 0-.66-.03-.98-.09-.32-.07-.63-.16-.93-.29-.3-.12-.6-.28-.87-.46s-.53-.39-.75-.62c-.24-.23-.45-.49-.63-.76s-.33-.56-.46-.86c-.12-.31-.22-.62-.28-.94-.07-.32-.1-.65-.1-.98 0-.32.03-.65.1-.97.06-.32.16-.64.28-.94.13-.3.28-.59.46-.86.18-.28.39-.53.62-.76s.49-.44.76-.62.56-.34.87-.46c.3-.13.61-.22.93-.29.65-.13 1.31-.13 1.96 0 .32.07.63.16.93.29.3.12.59.28.87.46.27.18.53.39.76.62s.43.48.62.76c.18.27.33.56.46.86.12.3.22.62.28.94.07.32.1.65.1.97 0 .33-.03.66-.1.98-.06.32-.16.63-.28.94-.13.3-.28.59-.46.86-.19.27-.4.53-.63.76s-.48.44-.76.62c-.27.18-.56.34-.86.46-.3.13-.61.22-.93.29-.33.06-.65.09-.98.09z"/></g><g><path d="m354.63 303.79c-.32 0-.65-.04-.97-.1-.32-.07-.64-.16-.94-.29-.3-.12-.59-.28-.86-.46-.28-.18-.53-.39-.76-.62s-.44-.48-.62-.76c-.18-.27-.34-.56-.46-.86-.13-.3-.23-.62-.29-.94-.07-.32-.1-.65-.1-.97 0-.33.03-.66.1-.98.06-.32.16-.64.29-.94.12-.3.27-.59.45-.86.19-.27.4-.53.63-.76s.48-.44.76-.62c.27-.18.56-.34.86-.46.3-.13.62-.22.94-.29 1.61-.33 3.34.21 4.51 1.37.23.23.44.49.62.76s.33.56.46.86c.12.3.22.62.28.94.07.32.1.65.1.98 0 .32-.03.65-.1.97-.06.32-.16.64-.28.94-.13.3-.28.59-.46.86-.18.28-.39.53-.62.76-.93.93-2.22 1.47-3.54 1.47z"/></g><g><path d="m384.87 258.53c-.33 0-.66-.03-.98-.09-.32-.07-.63-.16-.93-.29-.31-.13-.6-.28-.87-.46s-.53-.39-.76-.62-.44-.49-.62-.76-.33-.56-.46-.86c-.12-.31-.22-.62-.28-.94-.07-.32-.1-.65-.1-.98 0-1.31.53-2.6 1.46-3.53.23-.23.49-.44.76-.62s.56-.34.87-.46c.3-.13.61-.22.93-.29.65-.13 1.31-.13 1.96 0 .32.07.63.16.93.29.3.12.59.28.86.46.28.18.53.39.76.62.94.93 1.47 2.22 1.47 3.53 0 .33-.03.66-.1.98-.06.32-.16.63-.28.94-.13.3-.28.59-.46.86-.19.27-.39.53-.63.76-.23.23-.48.44-.76.62-.27.18-.56.33-.86.46s-.62.22-.93.29c-.33.06-.66.09-.98.09z"/></g><g><path d="m395.49 205.15c-.33 0-.66-.03-.98-.09-.32-.07-.63-.16-.94-.29-.3-.12-.59-.28-.86-.46s-.53-.39-.76-.62-.44-.49-.62-.76-.33-.56-.46-.86c-.12-.31-.22-.62-.28-.94-.07-.32-.1-.65-.1-.98 0-1.31.53-2.6 1.46-3.53.23-.23.49-.44.76-.62s.56-.34.86-.46c.31-.13.62-.22.94-.29.64-.13 1.31-.13 1.95 0 .32.07.64.16.94.29.3.12.59.28.86.46.28.18.53.39.76.62.93.93 1.47 2.22 1.47 3.53 0 .33-.04.66-.1.98s-.16.63-.29.94c-.12.3-.28.59-.45.86-.19.27-.4.53-.63.76s-.48.44-.76.62c-.27.18-.56.34-.86.46-.3.13-.62.22-.94.29-.32.06-.65.09-.97.09z"/></g><g><path d="m384.87 151.77c-.33 0-.66-.03-.98-.09-.32-.07-.63-.16-.93-.29-.31-.12-.6-.28-.87-.46s-.53-.39-.76-.62-.44-.49-.62-.76-.33-.56-.46-.86c-.12-.31-.22-.62-.28-.94-.07-.32-.1-.65-.1-.98 0-1.31.53-2.6 1.46-3.53.23-.23.49-.44.76-.62s.56-.34.87-.46c.3-.13.61-.22.93-.29.65-.13 1.31-.13 1.96 0 .32.07.63.16.93.29.3.12.59.28.86.46.28.18.53.39.76.62.94.93 1.47 2.22 1.47 3.53 0 .33-.03.66-.1.98-.06.32-.16.63-.28.94-.13.3-.28.59-.46.86-.19.27-.39.53-.63.76-.23.23-.48.44-.76.62-.27.18-.56.34-.86.46-.3.13-.62.22-.93.29-.33.06-.66.09-.98.09z"/></g><g><path d="m354.63 106.52c-.32 0-.65-.03-.97-.1-.32-.06-.64-.16-.94-.28-.3-.13-.59-.28-.86-.46-.28-.18-.53-.39-.76-.62-.93-.93-1.47-2.22-1.47-3.54 0-.32.03-.65.1-.98.06-.31.16-.63.29-.93.12-.3.27-.59.45-.86.19-.28.4-.53.63-.76s.48-.44.76-.63c.27-.18.56-.33.86-.46.3-.12.62-.22.94-.28 1.62-.33 3.35.2 4.51 1.37.23.23.44.48.62.76.18.27.33.56.46.86.12.3.22.62.28.93.07.33.1.66.1.98 0 1.32-.53 2.61-1.46 3.54s-2.22 1.46-3.54 1.46z"/></g><g><path d="m309.38 76.29c-1.32 0-2.61-.54-3.54-1.47-.23-.23-.44-.49-.62-.76s-.33-.56-.46-.86c-.12-.3-.22-.62-.28-.94-.07-.32-.1-.65-.1-.98 0-.32.03-.65.1-.97.06-.32.16-.64.28-.94.13-.3.28-.59.46-.86.18-.28.39-.53.62-.76 1.17-1.16 2.89-1.69 4.52-1.37.32.07.63.16.93.29.3.12.59.28.87.46.27.18.53.39.76.62s.43.48.62.76c.18.27.33.56.46.86.12.3.22.62.28.94.07.32.1.65.1.97 0 .33-.03.66-.1.98-.06.32-.16.64-.28.94-.13.3-.28.59-.46.86-.19.27-.39.53-.62.76s-.49.44-.76.62c-.28.18-.57.34-.87.46-.3.13-.61.22-.93.29-.33.06-.65.1-.98.1z"/></g><g><g><g><path d="m269.54 276.78c-12.77 0-27.89-1.3-45.31-3.91h-22.06c-11.24 0-20.39-9.15-20.39-20.39v-40.41c0-11.24 9.15-20.39 20.39-20.39h21.23c8.86-4.83 21.02-19.15 30.52-59.31.14-.58.26-1.08.36-1.5.2-2.14 1.23-4.11 2.9-5.5 1.87-1.55 4.3-2.18 6.68-1.73 11.58 2.19 19.99 12.33 19.99 24.1 0 2.17-.29 4.35-.88 6.49-.32 1.16-.63 2.28-.93 3.38-1.89 6.84-3.44 12.46-3.74 17.19 15.19-2.96 39.2-5.47 47.64 5.68 3.71 4.91 3.89 11.34.56 19.15 3.72 4.89 6.31 13.41-.35 23.77 2.22 6.66 2.81 16.94-5.69 23.31.72 3.96.73 10.03-3.62 15.85-7.07 9.47-22.92 14.22-47.3 14.22zm-67.38-75.1c-5.73 0-10.39 4.66-10.39 10.39v40.41c0 5.73 4.66 10.39 10.39 10.39h22.44c.25 0 .5.02.74.06 61.34 9.23 78.59.06 83.41-6.23 3.64-4.75 1.42-9.99 1.32-10.21-1.16-2.48-.08-5.38 2.38-6.57 8.19-3.95 4.38-13.23 3.54-15.05-.78-1.68-.58-3.69.55-5.16 7.08-9.28 1.95-14.3.85-15.22-1.91-1.49-2.42-4.08-1.3-6.22 2.01-3.84 3.97-8.99 1.88-11.75-3.78-5-20.29-5.58-40.15-1.41-2.29.48-4.66-.07-6.5-1.51-1.83-1.43-2.94-3.58-3.04-5.9-.28-6.77 1.66-13.82 4.13-22.74.3-1.08.61-2.2.92-3.34.35-1.28.52-2.58.52-3.86 0-6.34-4.12-11.88-10.03-13.81-.05.23-.11.48-.18.74-8.64 36.51-21.05 58.88-36.88 66.51-.68.33-1.42.5-2.17.5h-22.43z"/></g></g><g><path d="m224.6 272.87c-2.76 0-5-2.24-5-5v-71.18c0-2.76 2.24-5 5-5s5 2.24 5 5v71.18c0 2.76-2.24 5-5 5z"/></g></g></g></svg>