<svg id="Layer_1" enable-background="new 0 0 512 512" height="512" viewBox="0 0 512 512" width="512" xmlns="http://www.w3.org/2000/svg"><g><path d="m177.19 192.32h30.53v76.58h-30.53z"/><path d="m256 61.85c-77.45 0-140.46 62.92-140.46 140.27 0 77.34 63.01 140.27 140.46 140.27s140.46-62.92 140.46-140.27-63.01-140.27-140.46-140.27zm94.73 123.94-11.69 82.72c-.01.06-.02.13-.03.19-2.76 16.66-14.7 18.46-19.7 18.46h-63.81c-5.98 0-11.37-2.23-15.58-6.43l-2.46-2.43c-1.28-1.29-2.55-1.82-4.31-1.82h-9.43v.43c0 4.42-3.58 8-8 8h-46.53c-4.42 0-8-3.58-8-8v-92.58c0-4.42 3.58-8 8-8h46.53c4.35 0 7.88 3.48 7.99 7.8.96-.48 1.78-1.24 2.42-2.29l15.83-26.05c.9-1.47 1.79-2.62 2.89-3.77l8.43-8.86c1.19-1.24 1.69-2.48 1.69-4.17v-20.48c0-8.64 4.84-16.28 12.62-19.94 7.75-3.67 16.71-2.58 23.37 2.85 1.95 1.57 6.92 6.64 8.53 8.6 7.21 8.97 8.14 25.52 4.88 35.73l-5.36 16.75h29.62c12.23 0 22.18 9.94 22.18 22.16 0 .39-.03.76-.08 1.13z"/><path d="m461.44 184.41-23.06-31.69c-3.93-5.35-5.77-11.06-5.77-17.7v-39.18c0-13.26-8.2-24.55-20.83-28.65l-37.3-12.08c-6.33-2.05-11.19-5.59-15.09-10.94l-23.06-31.72c-7.79-10.71-21.07-15.01-33.69-10.91l-37.33 12.08c-6.33 2.05-12.31 2.05-18.63 0l-37.3-12.08c-12.66-4.1-25.9.2-33.72 10.91l-23.06 31.72c-3.9 5.35-8.76 8.9-15.09 10.94l-37.3 12.08c-12.63 4.1-20.83 15.39-20.83 28.65v39.18c0 6.64-1.85 12.35-5.77 17.7l-23.06 31.69c-7.79 10.74-7.79 24.67 0 35.41l23.06 31.69c3.93 5.38 5.77 11.06 5.77 17.7v39.18c0 13.28 8.2 24.55 20.83 28.65l37.3 12.11c6.33 2.05 11.19 5.56 15.09 10.91l23.06 31.72c7.82 10.74 21.07 15.04 33.72 10.94l37.3-12.11c6.33-2.05 12.31-2.05 18.63 0l37.3 12.11c12.66 4.1 25.93-.2 33.72-10.94l23.06-31.72c3.9-5.35 8.76-8.87 15.09-10.91l37.3-12.11c12.63-4.1 20.83-15.36 20.83-28.65v-39.18c0-6.64 1.85-12.32 5.77-17.7l23.06-31.69c7.79-10.74 7.79-24.67 0-35.41zm-205.44 173.97c-86.27 0-156.46-70.1-156.46-156.27s70.19-156.27 156.46-156.27 156.46 70.1 156.46 156.27-70.19 156.27-156.46 156.27z"/><path d="m328.63 178.51h-40.58c-2.55 0-4.96-1.22-6.46-3.28s-1.94-4.72-1.16-7.16l8.7-27.18c2.02-6.33.96-17.02-2.07-20.79-.95-1.17-5.12-5.39-6.16-6.23-1.96-1.6-4.25-1.88-6.48-.82-2.23 1.05-3.45 2.99-3.45 5.47v20.48c0 5.78-2.12 11.04-6.12 15.22l-8.45 8.88c-.3.31-.48.53-.8 1.04l-15.83 26.04c-3.63 5.92-9.38 9.61-16.06 10.41v59.9h9.43c6.01 0 11.41 2.25 15.62 6.5l2.43 2.39c1.25 1.25 2.57 1.79 4.31 1.79h63.81c1.57 0 3.06 0 3.9-4.98l11.58-81.95c-.23-3.15-2.96-5.73-6.16-5.73z"/><path d="m199.83 420.26c-14.76 0-28.28-6.94-37.1-19.05l-23.07-31.73c-1.9-2.61-3.95-4.09-7.08-5.1l-26.9-8.74-46.28 80.04c-1.14 1.96-1.08 4.24.15 6.14s3.28 2.9 5.54 2.66l74.18-7.08c2.55-.23 4.89 1.08 5.95 3.42l30.94 67.71c.94 2.08 2.81 3.34 5.1 3.45 2.26.12 4.25-.99 5.39-2.96l58.44-101.08-30.77 9.99c-4.73 1.55-9.61 2.33-14.49 2.33z"/><path d="m406.31 355.64-26.89 8.73c-3.14 1.02-5.19 2.5-7.09 5.11l-23.05 31.71c-8.79 12.11-22.32 19.06-37.1 19.06-4.89 0-9.76-.78-14.49-2.31l-30.78-10 58.44 101.08c1.14 1.96 3.13 3.07 5.39 2.96 2.29-.12 4.16-1.38 5.1-3.45l30.94-67.71c1.05-2.34 3.4-3.66 5.95-3.42l74.18 7.08c2.26.23 4.31-.76 5.54-2.66s1.29-4.18.15-6.14z"/></g></svg>