<svg width="59" height="83" viewBox="0 0 59 83" fill="none" xmlns="http://www.w3.org/2000/svg">
<g clip-path="url(#clip0_7_213)">
<path fill-rule="evenodd" clip-rule="evenodd" d="M50.4684 51.8002L59 71.8292L48.304 71.7042L39.5138 78.8647L31.8034 59.9978C34.0325 59.4541 36.2389 58.3229 38.4664 56.5684L38.7347 56.3704L38.7299 56.364L38.8753 56.2503L38.8689 56.2406C39.1518 56.0134 39.4427 55.7813 39.7013 55.5833C40.2396 55.6174 40.8215 55.6385 41.5473 55.6044C42.5479 55.559 43.6212 55.3999 44.8077 55.0169C45.8519 54.6793 46.8201 54.2655 47.7092 53.7721C48.627 53.265 49.4895 52.6628 50.2825 51.9755L50.2761 51.9674L50.4684 51.8002ZM28.6013 0.0032831C29.6697 -0.0259303 30.625 0.141235 31.5125 0.447975C32.3304 0.730371 33.0804 1.13449 33.8191 1.60515C34.5691 2.07256 35.2755 2.67468 36.0304 3.32387C36.753 3.94384 37.5499 4.62548 38.35 5.08478L38.4017 5.11562C38.7315 5.24221 39.5736 5.27629 40.4546 5.30713C43.5242 5.42074 46.8363 5.54408 49.3224 9.24931L49.4582 9.46841C51.2379 12.2145 51.3704 14.2708 51.4981 16.2832L51.5046 16.4244C51.545 17.0444 51.6161 17.6271 51.8101 18.2032C52.0234 18.8118 52.3985 19.5129 53.0612 20.3942C54.8571 22.7767 55.9659 24.8655 56.4218 26.8925C56.9617 29.2978 56.6077 31.4401 55.4034 33.5954C54.5451 35.1275 53.399 36.1142 52.3888 36.9825C52.0235 37.2957 51.8424 37.2341 51.7697 37.4061L51.6953 37.57C51.5224 38.0845 51.511 38.7175 51.503 39.3618C51.4787 41.0172 51.4496 42.7327 50.2922 45.0259C49.5665 46.4606 48.6176 47.673 47.4586 48.663C46.3207 49.6465 44.9903 50.3785 43.4806 50.867C41.9336 51.3669 40.6938 51.2792 39.5219 51.1948C39.0742 51.164 38.7557 51.0861 38.7024 51.1088C37.8618 51.474 36.9696 52.1946 36.1306 52.8681L35.9367 53.0142C30.701 57.2111 26.0651 56.8866 21.0719 52.8681C20.2346 52.1946 19.3407 51.4756 18.4985 51.1218C18.4145 51.0845 17.8115 51.1851 17.6806 51.1948C16.5071 51.2792 15.2673 51.3669 13.7219 50.867C12.2106 50.3785 10.8819 49.6465 9.74389 48.676C8.59137 47.6925 7.64414 46.4752 6.91027 45.0259C5.74967 42.7311 5.72381 41.0156 5.69956 39.3602C5.68986 38.6444 5.67693 37.9449 5.44578 37.4061C5.36496 37.2162 5.192 37.3071 4.81375 36.9825C3.8051 36.1159 2.65581 35.1307 1.79748 33.5954C0.593233 31.4401 0.240849 29.2978 0.78074 26.8925C1.23496 24.8638 2.34384 22.7767 4.1397 20.3942C4.80244 19.5129 5.17907 18.8118 5.38759 18.2016L5.428 18.088C5.59449 17.5508 5.65915 17.0038 5.69471 16.4244L5.70926 16.2037C5.84019 14.162 5.99537 12.0733 7.87852 9.26229C10.363 5.54571 13.6767 5.42074 16.7479 5.30713C17.6838 5.27305 18.5761 5.23734 18.8558 5.09128C19.6543 4.62548 20.4496 3.94384 21.1753 3.32062L21.3725 3.16319C22.0531 2.5838 22.6948 2.04173 23.3721 1.61164C24.093 1.1426 24.8447 0.738486 25.6884 0.447975C26.5759 0.141235 27.5263 -0.0259303 28.6013 0.0032831ZM28.6029 2.85321C29.9478 2.79478 31.0081 3.26544 32.0782 3.94871C33.436 4.81375 34.9652 6.52111 36.8516 7.60525C39.5074 9.12759 44.4246 7.02585 46.943 10.783C48.4123 12.9724 48.4802 14.6911 48.5901 16.3871C48.7081 18.2178 49.0282 19.9008 50.8936 22.3791C53.9826 26.4803 54.6259 29.2101 53.0353 32.0552C51.9491 33.9946 49.6651 35.0723 49.1365 36.3009C48.0115 38.9138 49.2561 40.8841 47.7156 43.9304C46.6472 46.0452 44.9968 47.4377 42.7984 48.1485C40.946 48.7474 39.0871 47.8807 37.6032 48.5072C34.9959 49.6059 33.0723 52.1637 30.9984 52.8097C30.1983 53.058 29.3998 53.1813 28.6029 53.1765C27.806 53.1813 27.0075 53.058 26.2073 52.8097C24.1318 52.1637 22.2099 49.6059 19.6025 48.5072C18.1187 47.8807 16.2598 48.7474 14.4057 48.1485C12.209 47.4377 10.5586 46.0452 9.49011 43.9304C7.94964 40.8841 9.1943 38.9138 8.06926 36.3009C7.54068 35.0723 5.25504 33.9946 4.17041 32.0552C2.57822 29.2101 3.22318 26.4803 6.31058 22.3791C8.17595 19.9008 8.496 18.2178 8.614 16.3871C8.72392 14.6911 8.79342 12.9724 10.2612 10.783C12.7796 7.02585 17.6984 9.12759 20.3526 7.60525C22.2406 6.52111 23.7681 4.81375 25.1275 3.94871C26.1976 3.26544 27.258 2.79478 28.6029 2.85321ZM28.9132 20.7529L30.9338 25.5033L36.0595 25.9642C36.1133 25.9687 36.1656 25.9838 36.2136 26.0087C36.2615 26.0336 36.3041 26.0678 36.3388 26.1093C36.3735 26.1508 36.3997 26.1988 36.4158 26.2505C36.432 26.3022 36.4378 26.3566 36.4329 26.4105C36.4238 26.5171 36.374 26.616 36.2939 26.6864L32.4177 30.0849L33.5637 35.1242C33.5822 35.2045 33.5763 35.2884 33.5468 35.3653C33.5174 35.4421 33.4657 35.5084 33.3984 35.5555C33.3311 35.6026 33.2513 35.6285 33.1693 35.6297C33.0873 35.6309 33.0068 35.6075 32.9382 35.5624L28.5334 32.9186L24.1156 35.5705C23.9201 35.6874 23.6679 35.6241 23.5515 35.4277C23.4968 35.3367 23.4794 35.2279 23.503 35.1242L24.6507 30.0849L20.7728 26.6864C20.7321 26.6508 20.6987 26.6074 20.6747 26.5588C20.6507 26.5102 20.6365 26.4573 20.6329 26.4032C20.6292 26.3491 20.6363 26.2947 20.6537 26.2434C20.6711 26.192 20.6984 26.1445 20.7341 26.1038C20.81 26.0161 20.9151 25.9691 21.0218 25.9626L26.133 25.5033L28.1551 20.7496C28.244 20.5386 28.4849 20.4413 28.695 20.5305C28.7985 20.5744 28.8728 20.6571 28.9132 20.7529ZM28.5334 12.1544C37.4302 12.1544 44.6444 19.3977 44.6444 28.3305C44.6444 37.2649 37.4302 44.5066 28.5334 44.5066C19.6349 44.5066 12.4223 37.2649 12.4223 28.3305C12.4223 19.3977 19.6349 12.1544 28.5334 12.1544ZM28.5334 14.8859C35.9286 14.8859 41.9239 20.9054 41.9239 28.3305C41.9239 35.7572 35.9286 41.7751 28.5334 41.7751C21.1365 41.7751 15.1428 35.7572 15.1428 28.3305C15.1428 20.9054 21.1365 14.8859 28.5334 14.8859ZM28.48 60.3792L19.4862 83L10.696 75.8411L0 75.9645L9.33008 53.6828L9.49981 53.7786C10.3888 54.2671 11.3571 54.6826 12.3948 55.0169C13.5797 55.3999 14.653 55.559 15.6536 55.6044C16.3713 55.6385 16.95 55.6174 17.485 55.5849C17.7485 55.7846 18.0524 56.028 18.3433 56.2633L18.3498 56.2682C21.5956 58.8779 24.8544 60.2932 28.3119 60.3775L28.48 60.3792Z" fill="black"/>
</g>
<defs>
<clipPath id="clip0_7_213">
<rect width="59" height="83" fill="white"/>
</clipPath>
</defs>
</svg>
