<svg width="187" height="46" viewBox="0 0 187 46" fill="none" xmlns="http://www.w3.org/2000/svg">
<g clip-path="url(#clip0_17_517)">
<path d="M56.5014 9.54158C54.0598 9.54158 52.8424 11.319 52.8424 14.2952C52.8424 17.3954 53.8502 19.3038 56.542 19.2486C57.083 19.2486 57.5903 19.1866 57.9555 19.0695C58.3072 18.9524 58.3613 18.7939 58.3613 18.415V16.8374L60.3362 16.9752V20.3854C59.2676 20.9572 57.7391 21.1914 56.5014 21.1914C52.5719 21.1914 50.4211 18.9455 50.4211 14.4468C50.4211 9.29357 53.5188 7.57812 56.5014 7.57812C57.6444 7.57812 58.9836 7.83303 60.1401 8.38418V11.7393L58.1652 11.8771V10.3407C58.1652 9.96872 58.1043 9.81027 57.7594 9.68626C57.3942 9.58292 56.8869 9.54158 56.5014 9.54158Z" fill="white"/>
<path d="M66.5514 10.7266C67.9853 10.7266 70.8732 11.1813 70.8732 15.7213C70.8732 19.5104 68.8036 21.2466 66.2403 21.2466C63.6432 21.2466 61.9388 19.5518 61.9388 15.9762C61.9456 11.8702 64.5562 10.7266 66.5514 10.7266ZM68.5128 16.0382C68.5128 13.8268 67.992 12.4696 66.4432 12.4696C64.9147 12.4696 64.2925 13.813 64.2925 15.7075C64.2925 17.5401 64.5427 19.5173 66.4026 19.5173C67.9109 19.5104 68.5128 18.0912 68.5128 16.0382Z" fill="white"/>
<path d="M72.0568 11.0228H75.3303V12.3042C76.0066 11.319 76.994 10.7266 78.2723 10.7266C79.51 10.7266 80.4028 11.2364 80.8492 12.3042C81.5255 11.319 82.5129 10.7266 83.7912 10.7266C85.6106 10.7266 86.6995 11.8289 86.6995 14.1574V19.3107L87.8019 19.3727V20.9503H83.1893V19.4484L83.8318 19.3864C84.1835 19.3451 84.3729 19.228 84.3932 18.7526V14.6741C84.3932 13.4685 84.2985 12.5453 83.054 12.5453C81.7554 12.5453 81.1738 13.4134 81.1738 14.5777V19.3107L82.2424 19.3727V20.9503H77.6704V19.4484L78.3129 19.3864C78.6781 19.3451 78.8743 19.228 78.8743 18.732V14.6673C78.8743 13.4616 78.7796 12.5385 77.5351 12.5385C76.1824 12.5385 75.6549 13.503 75.6549 14.5295V19.3038L76.7032 19.3658V20.9434H72.1312V19.4416L72.7737 19.3795C73.1389 19.3382 73.3351 19.2211 73.3351 18.7251H73.3554V13.2825C73.3554 12.8485 73.2404 12.69 72.8684 12.6694L72.0568 12.6073V11.0228Z" fill="white"/>
<path d="M90.0338 13.2756C90.0338 12.8416 89.9188 12.6831 89.5468 12.6831L88.7352 12.6211V11.0228H92.0087V12.3042C92.3604 11.636 93.4222 10.7266 95.0725 10.7266C97.2232 10.7266 98.5759 12.2078 98.5759 15.7351C98.5759 19.3658 96.8918 21.2397 94.3353 21.2397C93.5778 21.2397 92.7662 20.9848 92.2657 20.6679V23.3891L93.8348 23.4649V25.0219H88.8367V23.52L89.4792 23.458C89.8444 23.4167 90.0406 23.2996 90.0406 22.8035V13.2756H90.0338ZM94.2135 12.6418C93.1111 12.6418 92.2589 13.4341 92.2589 14.3366V18.8766C92.7594 19.2142 93.4628 19.3727 93.9633 19.3727C95.6068 19.3727 96.1749 17.6572 96.1749 15.9418C96.1749 13.3101 95.2416 12.6418 94.2135 12.6418Z" fill="white"/>
<path d="M108.647 18.7595C108.647 19.1935 108.762 19.3107 109.133 19.3313L109.756 19.3727V20.9503H106.678V19.8067L106.618 19.786C106.016 20.6747 105.028 21.2052 103.966 21.2052C101.234 21.2052 100.091 19.2349 100.091 16.4103C100.091 12.938 101.721 10.7266 105.204 10.7266C105.847 10.7266 107.26 10.885 108.653 11.4155V18.7595H108.647ZM106.401 12.7038C106.11 12.566 105.508 12.4489 104.906 12.4489C103.067 12.4489 102.445 14.2057 102.445 16.3345C102.445 17.9741 102.83 19.5311 104.46 19.5311C105.664 19.5311 106.394 18.6631 106.394 17.8157V12.7038H106.401Z" fill="white"/>
<path d="M110.818 11.0228H114.091V12.3042C114.767 11.319 115.951 10.7266 117.229 10.7266C119.164 10.7266 120.307 11.8289 120.307 14.1574V19.3107L121.409 19.3727V20.9503H116.803V19.4484L117.446 19.3864C117.811 19.3451 118.007 19.228 118.007 18.732V14.6673C118.007 13.3652 117.736 12.5385 116.418 12.5385C115.139 12.5385 114.422 13.503 114.422 14.5295V19.3038L115.525 19.3658V20.9434H110.912V19.4416L111.555 19.3795C111.92 19.3382 112.116 19.2211 112.116 18.7251V13.2618C112.116 12.8278 111.981 12.6694 111.629 12.6487L110.818 12.5867V11.0228Z" fill="white"/>
<path d="M129.681 19.0763C129.004 20.0615 127.821 20.6126 126.542 20.6126C124.608 20.6126 123.539 19.5241 123.539 17.2024V13.2342C123.539 12.8208 123.384 12.7037 123.053 12.683L122.43 12.6417V11.0227H125.839V16.6857C125.839 17.8914 126.035 18.7939 127.273 18.7939C128.626 18.7939 129.342 17.8638 129.342 16.8373V13.2686C129.342 12.8346 129.227 12.6761 128.855 12.6761L128.233 12.6348V11.0227H131.642V20.5713C131.642 23.83 130.032 25.1665 127.151 25.1665C125.934 25.1665 124.324 24.9322 123.512 24.512V21.77L125.352 21.6116V22.5554C125.352 22.9275 125.447 23.1272 125.798 23.265C126.164 23.4028 126.59 23.4648 127.171 23.4648C128.95 23.4648 129.667 22.3625 129.667 20.5644V19.0763H129.681Z" fill="white"/>
<path d="M137.506 19.352L138.202 19.29C138.534 19.2693 138.703 19.1315 138.703 18.7389V9.56228L137.6 9.50028V7.82617H141.09L146.575 16.8856H146.616V9.56228L145.338 9.50028V7.82617H150.065V9.42449L149.369 9.4865C149.078 9.50717 148.902 9.68629 148.902 10.0996V20.9503H146.63L141.029 11.7531H140.989V19.2142L142.247 19.2762V20.9503H137.499V19.352H137.506Z" fill="white"/>
<path d="M159.879 18.7595C159.879 19.1935 159.994 19.3107 160.366 19.3313L160.988 19.3727V20.9503H157.911V19.8067L157.85 19.786C157.248 20.6747 156.261 21.2052 155.199 21.2052C152.466 21.2052 151.323 19.2349 151.323 16.4103C151.323 12.938 152.953 10.7266 156.436 10.7266C157.079 10.7266 158.492 10.885 159.886 11.4155V18.7595H159.879ZM157.634 12.7038C157.343 12.566 156.741 12.4489 156.139 12.4489C154.299 12.4489 153.677 14.2057 153.677 16.3345C153.677 17.9741 154.062 19.5311 155.692 19.5311C156.896 19.5311 157.627 18.6631 157.627 17.8157V12.7038H157.634Z" fill="white"/>
<path d="M162.05 11.0228H165.323V12.3042C166 11.319 166.987 10.7266 168.266 10.7266C169.503 10.7266 170.396 11.2364 170.842 12.3042C171.519 11.319 172.506 10.7266 173.784 10.7266C175.604 10.7266 176.693 11.8289 176.693 14.1574V19.3107L177.795 19.3727V20.9503H173.182V19.4484L173.825 19.3864C174.177 19.3451 174.366 19.228 174.386 18.7526V14.6741C174.386 13.4685 174.292 12.5453 173.047 12.5453C171.749 12.5453 171.167 13.4134 171.167 14.5777V19.3107L172.236 19.3727V20.9503H167.664V19.4484L168.306 19.3864C168.671 19.3451 168.867 19.228 168.867 18.732V14.6673C168.867 13.4616 168.773 12.5385 167.528 12.5385C166.176 12.5385 165.648 13.503 165.648 14.5295V19.3038L166.696 19.3658V20.9434H162.124V19.4416L162.767 19.3795C163.132 19.3382 163.328 19.2211 163.328 18.7251H163.349V13.2825C163.349 12.8485 163.234 12.69 162.862 12.6694L162.05 12.6073V11.0228Z" fill="white"/>
<path d="M186.959 13.4686C186.959 16.5068 183.727 17.0235 181.441 17.0372C181.515 18.3186 182.178 19.3658 183.821 19.3658C184.964 19.3658 185.796 18.8353 186.263 18.4978L187 20.0961C186.689 20.3717 185.411 21.1984 183.591 21.1984C180.298 21.1984 179.019 19.1454 179.019 16.2036C179.019 13.2826 180.629 10.7197 183.801 10.7197C185.701 10.7266 186.959 11.7118 186.959 13.4686ZM183.666 12.4076C182.117 12.4076 181.42 13.9302 181.359 15.3838C182.793 15.3631 184.829 15.0256 184.829 13.5099C184.829 12.7796 184.362 12.4076 183.666 12.4076Z" fill="white"/>
<path d="M54.2759 33.799V36.3205H53.2614V33.7783L50.4141 29.0247H51.5097L53.8025 32.8758L56.1088 29.0247H57.1233L54.2759 33.799Z" fill="#B97C3B"/>
<path d="M56.9001 33.5577C56.9001 31.9112 58.0972 30.74 59.7272 30.74C61.3572 30.74 62.5408 31.9112 62.5408 33.5577C62.5408 35.2043 61.3504 36.3823 59.7272 36.3823C58.0972 36.3823 56.9001 35.2043 56.9001 33.5577ZM61.5465 33.5577C61.5465 32.3796 60.7688 31.6149 59.7272 31.6149C58.6856 31.6149 57.8943 32.3728 57.8943 33.5577C57.8943 34.7427 58.6856 35.5074 59.7272 35.5074C60.7688 35.5074 61.5465 34.7358 61.5465 33.5577Z" fill="#B97C3B"/>
<path d="M68.9592 30.7952V36.3204H68.0259V35.4868C67.6268 36.0586 66.9505 36.3824 66.1862 36.3824C64.7862 36.3824 63.8529 35.597 63.8529 33.9711V30.7952H64.8335V33.8609C64.8335 34.9425 65.3679 35.4868 66.2944 35.4868C67.3157 35.4868 67.9717 34.8392 67.9717 33.6542V30.7952H68.9592Z" fill="#B97C3B"/>
<path d="M73.7476 30.74V31.7114C73.6665 31.6976 73.5921 31.6976 73.5245 31.6976C72.4694 31.6976 71.8133 32.3521 71.8133 33.5646V36.3203H70.8326V30.7951H71.7727V31.7252C72.1177 31.0776 72.794 30.74 73.7476 30.74Z" fill="#B97C3B"/>
<path d="M77.339 32.6691C77.339 30.5127 78.9554 28.9351 81.14 28.9351C82.2424 28.9351 83.2096 29.3209 83.8656 30.0718L83.2028 30.7263C82.6482 30.1338 81.9719 29.8582 81.1873 29.8582C79.5709 29.8582 78.3738 31.0501 78.3738 32.6622C78.3738 34.2812 79.5709 35.4661 81.1873 35.4661C81.9787 35.4661 82.6482 35.1837 83.2028 34.5912L83.8656 35.2457C83.2096 35.9966 82.2492 36.3893 81.1332 36.3893C78.9554 36.4031 77.339 34.8323 77.339 32.6691Z" fill="#B97C3B"/>
<path d="M84.454 33.5577C84.454 31.9112 85.6511 30.74 87.2811 30.74C88.9111 30.74 90.0947 31.9112 90.0947 33.5577C90.0947 35.2043 88.9043 36.3823 87.2811 36.3823C85.6511 36.3823 84.454 35.2043 84.454 33.5577ZM89.1005 33.5577C89.1005 32.3796 88.3227 31.6149 87.2811 31.6149C86.2396 31.6149 85.4482 32.3728 85.4482 33.5577C85.4482 34.7427 86.2396 35.5074 87.2811 35.5074C88.3227 35.5074 89.1005 34.7358 89.1005 33.5577Z" fill="#B97C3B"/>
<path d="M100.463 33.1444V36.3272H99.4822V33.2615C99.4822 32.1799 98.9682 31.6425 98.0822 31.6425C97.1015 31.6425 96.4522 32.2763 96.4522 33.475V36.3203H95.4715V33.2546C95.4715 32.173 94.9575 31.6356 94.0715 31.6356C93.0908 31.6356 92.4416 32.2694 92.4416 33.4682V36.3134H91.4609V30.7951H92.401V31.6218C92.7933 31.0569 93.4561 30.7469 94.2744 30.7469C95.1063 30.7469 95.8029 31.0776 96.1546 31.7665C96.5672 31.1396 97.3247 30.7469 98.2445 30.7469C99.5634 30.74 100.463 31.5116 100.463 33.1444Z" fill="#B97C3B"/>
<path d="M107.896 33.5577C107.896 35.2594 106.739 36.3823 105.15 36.3823C104.379 36.3823 103.709 36.0792 103.256 35.4867V38.3458H102.275V30.7951H103.216V31.67C103.655 31.0569 104.352 30.74 105.15 30.74C106.739 30.74 107.896 31.8698 107.896 33.5577ZM106.902 33.5577C106.902 32.3865 106.11 31.6149 105.069 31.6149C104.034 31.6149 103.249 32.3865 103.249 33.5577C103.249 34.7358 104.041 35.5074 105.069 35.5074C106.117 35.5074 106.902 34.7358 106.902 33.5577Z" fill="#B97C3B"/>
<path d="M113.509 32.986V36.3204H112.576V35.5901C112.251 36.093 111.643 36.3824 110.797 36.3824C109.566 36.3824 108.789 35.7141 108.789 34.7565C108.789 33.8678 109.35 33.1375 110.966 33.1375H112.522V32.9377C112.522 32.0904 112.042 31.6012 111.068 31.6012C110.425 31.6012 109.769 31.8286 109.35 32.1937L108.937 31.4428C109.499 30.9812 110.31 30.7332 111.176 30.7332C112.671 30.74 113.509 31.4703 113.509 32.986ZM112.522 34.6325V33.8609H111.007C110.033 33.8609 109.756 34.2467 109.756 34.7152C109.756 35.2663 110.209 35.6108 110.953 35.6108C111.697 35.6108 112.278 35.2663 112.522 34.6325Z" fill="#B97C3B"/>
<path d="M120.476 33.1444V36.3272H119.495V33.2615C119.495 32.1799 118.961 31.6425 118.034 31.6425C116.993 31.6425 116.316 32.2763 116.316 33.475V36.3203H115.336V30.7951H116.276V31.6287C116.675 31.0638 117.371 30.74 118.23 30.74C119.549 30.74 120.476 31.5116 120.476 33.1444Z" fill="#B97C3B"/>
<path d="M127.002 30.7952L124.371 36.8716C123.891 38.0428 123.269 38.401 122.437 38.401C121.916 38.401 121.382 38.2219 121.044 37.8912L121.463 37.1403C121.727 37.4021 122.065 37.5468 122.437 37.5468C122.91 37.5468 123.208 37.3263 123.472 36.6925L123.648 36.3067L121.253 30.7883H122.275L124.168 35.2113L126.042 30.7883H127.002V30.7952Z" fill="#B97C3B"/>
<path d="M130.161 35.4867L130.54 34.6738C131.074 35.163 131.98 35.5212 132.907 35.5212C134.144 35.5212 134.679 35.0321 134.679 34.3982C134.679 32.6139 130.337 33.7438 130.337 31.0294C130.337 29.9064 131.196 28.9419 133.083 28.9419C133.921 28.9419 134.794 29.1692 135.389 29.5895L135.051 30.4231C134.428 30.0166 133.718 29.8306 133.083 29.8306C131.865 29.8306 131.344 30.3542 131.344 30.988C131.344 32.7724 135.686 31.6563 135.686 34.3362C135.686 35.4523 134.807 36.4099 132.913 36.4099C131.811 36.403 130.736 36.031 130.161 35.4867Z" fill="#B97C3B"/>
<path d="M137.032 28.5837H138.013V36.3204H137.032V28.5837Z" fill="#B97C3B"/>
<path d="M139.386 33.5577C139.386 31.9112 140.583 30.74 142.213 30.74C143.843 30.74 145.027 31.9112 145.027 33.5577C145.027 35.2043 143.836 36.3823 142.213 36.3823C140.583 36.3823 139.386 35.2043 139.386 33.5577ZM144.032 33.5577C144.032 32.3796 143.255 31.6149 142.213 31.6149C141.172 31.6149 140.38 32.3728 140.38 33.5577C140.38 34.7427 141.172 35.5074 142.213 35.5074C143.255 35.5074 144.032 34.7358 144.032 33.5577Z" fill="#B97C3B"/>
<path d="M151.574 30.7951V35.5694C151.574 37.5191 150.6 38.4078 148.76 38.4078C147.766 38.4078 146.765 38.1253 146.17 37.5811L146.643 36.8095C147.144 37.2504 147.935 37.526 148.733 37.526C150.011 37.526 150.593 36.9197 150.593 35.6727V35.2318C150.119 35.8036 149.416 36.0861 148.638 36.0861C147.069 36.0861 145.886 35.0045 145.886 33.4062C145.886 31.8078 147.076 30.74 148.638 30.74C149.45 30.74 150.187 31.0431 150.647 31.6494V30.7951H151.574ZM150.613 33.413C150.613 32.3383 149.835 31.6218 148.753 31.6218C147.658 31.6218 146.88 32.3383 146.88 33.413C146.88 34.474 147.658 35.218 148.753 35.218C149.835 35.218 150.613 34.474 150.613 33.413Z" fill="#B97C3B"/>
<path d="M157.749 32.986V36.3204H156.815V35.5901C156.491 36.093 155.882 36.3824 155.036 36.3824C153.805 36.3824 153.028 35.7141 153.028 34.7565C153.028 33.8678 153.589 33.1375 155.206 33.1375H156.761V32.9377C156.761 32.0904 156.281 31.6012 155.307 31.6012C154.664 31.6012 154.008 31.8286 153.589 32.1937L153.177 31.4428C153.738 30.9812 154.549 30.7332 155.415 30.7332C156.91 30.74 157.749 31.4703 157.749 32.986ZM156.768 34.6325V33.8609H155.253C154.279 33.8609 154.002 34.2467 154.002 34.7152C154.002 35.2663 154.455 35.6108 155.199 35.6108C155.936 35.6108 156.524 35.2663 156.768 34.6325Z" fill="#B97C3B"/>
<path d="M164.722 33.1444V36.3272H163.741V33.2615C163.741 32.1799 163.207 31.6425 162.28 31.6425C161.238 31.6425 160.562 32.2763 160.562 33.475V36.3203H159.581V30.7951H160.521V31.6287C160.921 31.0638 161.617 30.74 162.476 30.74C163.788 30.74 164.722 31.5116 164.722 33.1444Z" fill="#B97C3B"/>
<path d="M11.0513 15.3906L20.4727 24.3398C19.377 23.2996 19.3162 21.5497 20.3374 20.4336L30.0428 9.82404C31.0641 8.70797 32.782 8.64597 33.8777 9.68626L36.5018 11.8082C36.5018 11.071 36.2178 10.327 35.6429 9.7896L24.4631 0.743917C23.3674 -0.29637 21.6495 -0.234367 20.6282 0.881703L10.9228 11.4913C9.8948 12.6073 9.95567 14.3503 11.0513 15.3906Z" fill="white"/>
<path d="M44.5705 20.9504L34.1549 11.0642C33.0593 10.0239 31.3414 10.0859 30.3201 11.202L21.5413 20.7988C22.5626 19.6828 24.2805 19.6208 25.3761 20.6611L35.7917 30.5472C36.8873 31.5875 36.9482 33.3374 35.9269 34.4535L33.8438 37.1265C34.5675 37.1265 35.2912 36.8372 35.8255 36.2516L44.7058 24.8566C45.7338 23.7406 45.6729 21.9907 44.5705 20.9504Z" fill="#B97C3B"/>
<path d="M34.2835 30.6023L24.8554 21.6599C25.951 22.7002 26.0119 24.4501 24.9906 25.5662L15.2852 36.1757C14.2639 37.2918 12.546 37.3538 11.4504 36.3135L8.8262 34.1916C8.8262 34.9287 9.11026 35.6659 9.68515 36.2102L20.8717 45.2558C21.9674 46.2961 23.6853 46.2341 24.7066 45.1181L34.412 34.5085C35.44 33.3924 35.3791 31.6425 34.2835 30.6023Z" fill="white"/>
<path d="M15.1095 34.7634L23.8951 25.1666C22.8738 26.2826 21.1559 26.3446 20.0603 25.3043L9.64471 15.4182C8.54904 14.3779 8.48817 12.628 9.50944 11.5119L11.5926 8.83887C10.8689 8.83887 10.1452 9.12822 9.61089 9.71381L0.730604 21.1087C-0.290663 22.2248 -0.229793 23.9747 0.865871 25.015L11.2814 34.9012C12.3771 35.9415 14.0882 35.8795 15.1095 34.7634Z" fill="#B97C3B"/>
</g>
<defs>
<clipPath id="clip0_17_517">
<rect width="187" height="46" fill="white"/>
</clipPath>
</defs>
</svg>
