<svg id="Layer_1" enable-background="new 0 0 512 512" height="512" viewBox="0 0 512 512" width="512" xmlns="http://www.w3.org/2000/svg"><path d="m353.671 153.709c-3.426-2.323-8.091-1.433-10.418 1.994-2.326 3.428-1.433 8.092 1.994 10.418 49.775 33.779 79.491 89.809 79.491 149.879 0 99.804-81.196 181-181 181s-181-81.196-181-181c0-20.906 3.497-41.239 10.4-60.625l23.939 34.87c1.399 2.037 3.712 3.255 6.184 3.255s4.784-1.218 6.184-3.255l49.429-71.999c7.777-11.288 11.888-24.514 11.888-38.246 0-9.614-2.034-18.758-5.673-27.043 24.369-11.756 51.399-17.957 78.649-17.957 8.609 0 17.244.613 25.717 1.816l28.099 40.929c1.399 2.037 3.712 3.255 6.184 3.255s4.784-1.218 6.183-3.255l49.432-71.999c7.775-11.288 11.886-24.514 11.886-38.246 0-37.22-30.28-67.5-67.5-67.5s-67.5 30.28-67.5 67.5c0 13.731 4.11 26.957 11.88 38.236l10.165 14.806c-4.838-.355-9.695-.542-14.544-.542-29.882 0-59.531 6.882-86.192 19.937-12.306-16.63-32.054-27.437-54.284-27.437-37.22 0-67.5 30.28-67.5 67.5 0 13.732 4.11 26.958 11.88 38.236l15.219 22.168c-10.033 23.951-15.125 49.36-15.125 75.596 0 108.075 87.925 196 196 196s196-87.925 196-196c0-65.047-32.175-125.717-86.067-162.291zm-49.933-138.709c28.948 0 52.5 23.552 52.5 52.5 0 10.68-3.194 20.963-9.245 29.746l-43.255 63.003-23.741-34.582c-.053-.078-.104-.156-.159-.232l-19.359-28.199c-6.045-8.774-9.24-19.058-9.24-29.736-.001-28.948 23.551-52.5 52.499-52.5zm-252.976 165c0-28.948 23.552-52.5 52.5-52.5s52.5 23.552 52.5 52.5c0 10.68-3.195 20.962-9.246 29.746l-43.254 63.003-43.261-63.013c-6.044-8.774-9.239-19.056-9.239-29.736z"/><path d="m140.762 180c0-20.678-16.822-37.5-37.5-37.5s-37.5 16.822-37.5 37.5 16.822 37.5 37.5 37.5 37.5-16.822 37.5-37.5zm-60 0c0-12.406 10.094-22.5 22.5-22.5s22.5 10.094 22.5 22.5-10.094 22.5-22.5 22.5-22.5-10.094-22.5-22.5z"/><path d="m183.738 302.698c-20.678 0-37.5 16.822-37.5 37.5s16.822 37.5 37.5 37.5 37.5-16.822 37.5-37.5-16.822-37.5-37.5-37.5zm0 60c-12.406 0-22.5-10.094-22.5-22.5s10.094-22.5 22.5-22.5 22.5 10.094 22.5 22.5-10.093 22.5-22.5 22.5z"/><path d="m183.738 272.698c-37.22 0-67.5 30.28-67.5 67.5 0 13.732 4.11 26.958 11.88 38.236l49.437 72.009c1.399 2.037 3.712 3.255 6.184 3.255s4.784-1.218 6.183-3.255l49.431-71.999c7.776-11.287 11.887-24.513 11.887-38.246-.002-37.219-30.282-67.5-67.502-67.5zm43.255 97.246-43.255 63.003-43.261-63.013c-6.044-8.774-9.239-19.057-9.239-29.736 0-28.948 23.552-52.5 52.5-52.5s52.5 23.552 52.5 52.5c0 10.681-3.194 20.963-9.245 29.746z"/><path d="m303.738 105c20.678 0 37.5-16.822 37.5-37.5s-16.822-37.5-37.5-37.5-37.5 16.822-37.5 37.5 16.823 37.5 37.5 37.5zm0-60c12.406 0 22.5 10.094 22.5 22.5s-10.093 22.5-22.5 22.5-22.5-10.094-22.5-22.5 10.094-22.5 22.5-22.5z"/><path d="m468.738 45h-75c-4.143 0-7.5 3.357-7.5 7.5s3.357 7.5 7.5 7.5h75c4.143 0 7.5-3.357 7.5-7.5s-3.357-7.5-7.5-7.5z"/><path d="m422.49 90c4.143 0 7.5-3.357 7.5-7.5s-3.357-7.5-7.5-7.5h-30c-4.143 0-7.5 3.357-7.5 7.5s3.357 7.5 7.5 7.5z"/><path d="m356.238 325.198c0-4.143-3.357-7.5-7.5-7.5h-75c-4.143 0-7.5 3.357-7.5 7.5s3.357 7.5 7.5 7.5h75c4.143 0 7.5-3.357 7.5-7.5z"/><path d="m272.49 347.698c-4.143 0-7.5 3.357-7.5 7.5s3.357 7.5 7.5 7.5h30c4.143 0 7.5-3.357 7.5-7.5s-3.357-7.5-7.5-7.5z"/></svg>