<svg id="Layer_1" height="512" viewBox="0 0 50 50" width="512" xmlns="http://www.w3.org/2000/svg"><g><path d="m29.7 41c0 .8-.7 1.5-1.5 1.5h-19.7c-.8 0-1.5-.7-1.5-1.5v-36.3c0-.8.7-1.5 1.5-1.5h5.3c.6 0 1.1.4 1.3.9.2.6.7.9 1.3.9h3.8c.6 0 1.1-.3 1.4-.9.2-.6.8-.9 1.3-.9h5.3c.8 0 1.5.7 1.5 1.5v4h2.2v-4.2c0-1.9-1.6-3.5-3.5-3.5h-20.1c-1.9 0-3.5 1.6-3.5 3.5v41c0 1.9 1.6 3.5 3.5 3.5h20.1c1.9 0 3.5-1.6 3.5-3.5v-14.5h-2.2zm-11.3 6.2c-.8 0-1.5-.7-1.5-1.5s.6-1.5 1.5-1.5c.8 0 1.5.7 1.5 1.5-.1.9-.7 1.5-1.5 1.5z"/><path d="m42.5 13.4c-1.7-1.7-4-2.7-6.5-2.7h-12.7c-5.1 0-9.2 4.1-9.2 9.2v15.1l6-6h15.9c5.1 0 9.2-4.1 9.2-9.2 0-2.5-1.1-4.8-2.7-6.4zm-17.2 7.4c-.5 0-.9-.4-.9-.9s.4-.9.9-.9.9.4.9.9-.4.9-.9.9zm4.7-1.5c.4.2 2.1.7 2.1 2.3 0 .5-.2 1.8-1.9 1.9v1h-.8v-.9c-.7-.1-1.2-.3-1.5-.7-.4-.4-.5-.9-.5-1.6h1.4c0 1 .7 1.2 1.1 1.2.3 0 .9-.1.9-.8s-.6-.9-1-1.1c-.3-.1-2.1-.6-2.1-2.3 0-.5.2-1.7 1.9-1.9v-1h.8v1c.6.1 1.8.4 1.8 2.2h-1.4c.1-.9-.6-1.1-.9-1.1-.7 0-.8.6-.8.8-.1.5.5.8.9 1zm4.1 1.5c-.5 0-.9-.4-.9-.9s.4-.9.9-.9.9.4.9.9-.4.9-.9.9z"/></g></svg>