<svg width="49" height="49" viewBox="0 0 49 49" fill="none" xmlns="http://www.w3.org/2000/svg">
<path d="M33.8473 14.7104C33.5194 14.4881 33.073 14.5733 32.8503 14.9013C32.6277 15.2293 32.7131 15.6757 33.0411 15.8983C37.8047 19.1311 40.6486 24.4933 40.6486 30.2422C40.6486 39.7937 32.8779 47.5645 23.3264 47.5645C13.7748 47.5645 6.0041 39.7937 6.0041 30.2422C6.0041 28.2414 6.33878 26.2955 6.99942 24.4402L9.29045 27.7774C9.42434 27.9723 9.6457 28.0889 9.88228 28.0889C10.1189 28.0889 10.3401 27.9723 10.4741 27.7774L15.2046 20.8868C15.9489 19.8065 16.3423 18.5408 16.3423 17.2266C16.3423 16.3065 16.1477 15.4314 15.7994 14.6385C18.1316 13.5134 20.7185 12.9199 23.3264 12.9199C24.1503 12.9199 24.9767 12.9786 25.7876 13.0937L28.4767 17.0108C28.6106 17.2057 28.832 17.3223 29.0686 17.3223C29.3051 17.3223 29.5264 17.2057 29.6603 17.0108L34.3911 10.1202C35.1352 9.03993 35.5286 7.77416 35.5286 6.45996C35.5286 2.89789 32.6307 0 29.0687 0C25.5066 0 22.6087 2.89789 22.6087 6.45996C22.6087 7.77406 23.002 9.03983 23.7456 10.1193L24.7185 11.5362C24.2555 11.5023 23.7906 11.4844 23.3266 11.4844C20.4668 11.4844 17.6293 12.143 15.0777 13.3924C13.9 11.8009 12.01 10.7666 9.88257 10.7666C6.3205 10.7666 3.42261 13.6645 3.42261 17.2266C3.42261 18.5408 3.81595 19.8065 4.55956 20.8859L6.01607 23.0074C5.05588 25.2996 4.56856 27.7313 4.56856 30.2422C4.56856 40.5853 12.9833 49 23.3264 49C33.6695 49 42.0842 40.5853 42.0842 30.2422C42.0842 24.017 39.0049 18.2107 33.8473 14.7104ZM29.0686 1.43555C31.839 1.43555 34.093 3.68955 34.093 6.45996C34.093 7.48207 33.7873 8.46619 33.2082 9.30675L29.0686 15.3363L26.7965 12.0267C26.7914 12.0193 26.7865 12.0118 26.7813 12.0045L24.9285 9.30579C24.35 8.46609 24.0442 7.48188 24.0442 6.45996C24.0441 3.68955 26.2981 1.43555 29.0686 1.43555ZM4.85796 17.2266C4.85796 14.4561 7.11196 12.2021 9.88238 12.2021C12.6528 12.2021 14.9068 14.4561 14.9068 17.2266C14.9068 18.2487 14.601 19.2327 14.0219 20.0733L9.88238 26.1029L5.74216 20.0724C5.16373 19.2327 4.85796 18.2487 4.85796 17.2266Z" fill="#B97C3B"/>
<path d="M13.4714 17.2266C13.4714 15.2476 11.8615 13.6377 9.88257 13.6377C7.90362 13.6377 6.2937 15.2476 6.2937 17.2266C6.2937 19.2055 7.90362 20.8154 9.88257 20.8154C11.8615 20.8154 13.4714 19.2055 13.4714 17.2266ZM7.72925 17.2266C7.72925 16.0393 8.69528 15.0732 9.88257 15.0732C11.0699 15.0732 12.0359 16.0393 12.0359 17.2266C12.0359 18.4139 11.0699 19.3799 9.88257 19.3799C8.69528 19.3799 7.72925 18.4139 7.72925 17.2266Z" fill="#B97C3B"/>
<path d="M17.5842 28.9691C15.6053 28.9691 13.9954 30.579 13.9954 32.558C13.9954 34.5369 15.6053 36.1469 17.5842 36.1469C19.5632 36.1469 21.1731 34.5369 21.1731 32.558C21.1731 30.579 19.5632 28.9691 17.5842 28.9691ZM17.5842 34.7113C16.3969 34.7113 15.4309 33.7453 15.4309 32.558C15.4309 31.3707 16.3969 30.4047 17.5842 30.4047C18.7715 30.4047 19.7375 31.3707 19.7375 32.558C19.7375 33.7453 18.7716 34.7113 17.5842 34.7113Z" fill="#B97C3B"/>
<path d="M17.5842 26.098C14.0222 26.098 11.1243 28.9959 11.1243 32.558C11.1243 33.8722 11.5176 35.1379 12.2612 36.2173L16.9925 43.1088C17.1264 43.3037 17.3477 43.4203 17.5843 43.4203C17.8209 43.4203 18.0422 43.3037 18.1761 43.1088L22.9068 36.2182C23.6509 35.138 24.0444 33.8723 24.0444 32.558C24.0442 28.996 21.1463 26.098 17.5842 26.098ZM21.7239 35.4048L17.5842 41.4344L13.444 35.4038C12.8656 34.5641 12.5598 33.58 12.5598 32.558C12.5598 29.7876 14.8138 27.5336 17.5842 27.5336C20.3546 27.5336 22.6086 29.7876 22.6086 32.558C22.6086 33.5802 22.303 34.5642 21.7239 35.4048Z" fill="#B97C3B"/>
<path d="M29.0686 10.0488C31.0476 10.0488 32.6575 8.43891 32.6575 6.45996C32.6575 4.48101 31.0476 2.87109 29.0686 2.87109C27.0897 2.87109 25.4797 4.48101 25.4797 6.45996C25.4797 8.43891 27.0897 10.0488 29.0686 10.0488ZM29.0686 4.30664C30.2559 4.30664 31.2219 5.27267 31.2219 6.45996C31.2219 7.64725 30.256 8.61328 29.0686 8.61328C27.8812 8.61328 26.9153 7.64725 26.9153 6.45996C26.9153 5.27267 27.8813 4.30664 29.0686 4.30664Z" fill="#B97C3B"/>
<path d="M44.8596 4.30664H37.6819C37.2854 4.30664 36.9641 4.62792 36.9641 5.02441C36.9641 5.42091 37.2854 5.74219 37.6819 5.74219H44.8596C45.2561 5.74219 45.5774 5.42091 45.5774 5.02441C45.5774 4.62792 45.2561 4.30664 44.8596 4.30664Z" fill="#B97C3B"/>
<path d="M40.4336 8.61328C40.8301 8.61328 41.1514 8.29201 41.1514 7.89551C41.1514 7.49901 40.8301 7.17773 40.4336 7.17773H37.5625C37.166 7.17773 36.8447 7.49901 36.8447 7.89551C36.8447 8.29201 37.166 8.61328 37.5625 8.61328H40.4336Z" fill="#B97C3B"/>
<path d="M34.093 31.1224C34.093 30.7259 33.7717 30.4047 33.3752 30.4047H26.1975C25.801 30.4047 25.4797 30.7259 25.4797 31.1224C25.4797 31.5189 25.801 31.8402 26.1975 31.8402H33.3752C33.7717 31.8402 34.093 31.5189 34.093 31.1224Z" fill="#B97C3B"/>
<path d="M26.0781 33.2758C25.6816 33.2758 25.3604 33.597 25.3604 33.9935C25.3604 34.39 25.6816 34.7113 26.0781 34.7113H28.9492C29.3457 34.7113 29.667 34.39 29.667 33.9935C29.667 33.597 29.3457 33.2758 28.9492 33.2758H26.0781Z" fill="#B97C3B"/>
</svg>
