<svg width="44" height="44" viewBox="0 0 44 44" fill="none" xmlns="http://www.w3.org/2000/svg">
<g clip-path="url(#clip0_80_380)">
<path d="M22.908 24.926C21.2642 24.9184 19.6311 24.6608 18.0647 24.1622C15.562 23.3249 13.7031 21.2061 13.1985 18.6157C12.6464 15.9563 13.6526 13.1443 15.9585 10.901C16.206 10.6601 16.4631 10.4292 16.7298 10.2086C19.0909 8.23189 22.2741 7.54495 25.2402 8.372C28.1117 9.28853 30.0959 11.9128 30.1952 14.9254C30.3027 16.6596 29.7375 18.3684 28.6171 19.6964C27.753 20.7849 26.353 21.299 24.9898 21.0285C24.4323 20.9128 23.9459 20.5752 23.6426 20.0933C23.3705 19.6253 23.3007 19.0666 23.4493 18.546C24.0906 16.1219 24.7426 12.438 24.7491 12.4006C24.7946 12.1426 24.9744 11.9284 25.2206 11.8388C25.4669 11.7492 25.7423 11.7978 25.943 11.9663C26.1437 12.1348 26.2393 12.3976 26.1937 12.6556C26.1665 12.8089 25.5245 16.4376 24.8674 18.9209C24.8205 19.0585 24.8323 19.2093 24.9 19.338C25.0014 19.4783 25.1544 19.5726 25.3253 19.6001C26.1598 19.7393 27.0027 19.4046 27.5142 18.7307C28.3843 17.6898 28.8202 16.354 28.7316 15.0003C28.6599 12.6023 27.0873 10.5087 24.8043 9.77164C22.3122 9.08619 19.6424 9.67177 17.6659 11.3373C17.4303 11.5329 17.2012 11.7376 16.9813 11.9518C15.8413 13.0607 14.0208 15.3618 14.6342 18.3171C15.0464 20.3818 16.521 22.0739 18.5099 22.7644C21.9493 23.8615 26.8914 23.9936 29.4953 20.7559C29.7511 20.4478 30.2068 20.402 30.5189 20.6529C30.831 20.9038 30.8842 21.3587 30.6382 21.6747C28.7127 24.0693 25.7826 24.926 22.908 24.926Z" fill="#B97C3B"/>
<path d="M20.3976 21.1238C19.6224 21.1371 18.8664 20.8829 18.2567 20.404C16.8491 19.2776 16.8104 17.3207 17.205 15.988C17.3379 15.5442 17.5164 15.1153 17.7375 14.7082C18.2877 13.598 19.1675 12.6849 20.2566 12.0939C21.6128 11.3902 23.2697 11.657 24.3364 12.751C24.8656 13.3309 25.2642 14.0176 25.5053 14.7648C25.633 15.1439 25.4333 15.5555 25.0564 15.6897C24.6795 15.8239 24.2646 15.6313 24.1239 15.2568C23.95 14.7048 23.661 14.196 23.276 13.7639C22.6541 13.1279 21.6851 12.9832 20.9045 13.4098C20.0878 13.8704 19.4315 14.5697 19.0235 15.4139C18.8521 15.7302 18.7136 16.0633 18.6103 16.408C18.3253 17.3719 18.388 18.63 19.1743 19.2597C20.034 19.95 21.4843 19.6582 22.3003 18.9542C22.9084 18.4068 23.4309 17.7712 23.8503 17.0686C23.9862 16.841 24.2342 16.7044 24.4992 16.7113C24.7641 16.7183 25.0048 16.8676 25.1285 17.102C25.2523 17.3364 25.24 17.6193 25.0963 17.842C24.5995 18.6698 23.9809 19.4182 23.2615 20.062C22.4596 20.7386 21.4467 21.1141 20.3976 21.1238Z" fill="#B97C3B"/>
<path d="M41.8 44H2.2C0.985526 43.9987 0.00133372 43.0145 0 41.8V14.6667C1.1528e-05 14.3823 0.164426 14.1236 0.421874 14.0028C0.679323 13.882 0.983387 13.921 1.20208 14.1027L19.196 29.0572C20.8241 30.4018 23.1775 30.4014 24.8051 29.0562L42.7973 14.1027C43.016 13.9206 43.3203 13.8814 43.578 14.0022C43.8357 14.1231 44.0002 14.3821 44 14.6667V41.8C43.9987 43.0145 43.0145 43.9987 41.8 44ZM1.46667 16.2296V41.8C1.46719 42.2048 1.79521 42.5328 2.2 42.5333H41.8C42.2049 42.533 42.533 42.2049 42.5333 41.8V16.2296L25.7415 30.185C23.5704 31.9792 20.4312 31.9797 18.2596 30.1861L1.46667 16.2296Z" fill="#B97C3B"/>
<path d="M0.734051 15.4C0.414633 15.4003 0.131768 15.1938 0.0347195 14.8895C-0.0623292 14.5852 0.0487643 14.253 0.309378 14.0683L6.90938 9.38967C7.23981 9.16066 7.69304 9.24039 7.92547 9.56843C8.1579 9.89648 8.08287 10.3505 7.75726 10.5863L1.15726 15.265C1.03367 15.3529 0.885731 15.4001 0.734051 15.4Z" fill="#B97C3B"/>
<path d="M43.2659 15.4C43.1142 15.4001 42.9663 15.3529 42.8427 15.265L36.2427 10.5863C35.9171 10.3505 35.842 9.89648 36.0745 9.56843C36.3069 9.24039 36.7601 9.16066 37.0906 9.38967L43.6906 14.0683C43.9512 14.253 44.0623 14.5852 43.9652 14.8895C43.8682 15.1938 43.5853 15.4003 43.2659 15.4Z" fill="#B97C3B"/>
<path d="M28.7754 5.13332C28.6236 5.1334 28.4756 5.08622 28.3518 4.99832L24.8465 2.51232C23.2193 1.1373 20.8415 1.12298 19.1979 2.47829L15.6485 4.99839C15.4348 5.14998 15.1564 5.17601 14.9182 5.06669C14.6801 4.95736 14.5183 4.72928 14.4939 4.46836C14.4695 4.20744 14.5862 3.95333 14.7999 3.80174L18.3053 1.31574C20.4712 -0.45529 23.589 -0.441204 25.7389 1.34932L29.2003 3.80144C29.4611 3.98608 29.5723 4.31837 29.4752 4.62283C29.3781 4.9273 29.095 5.13381 28.7754 5.13332Z" fill="#B97C3B"/>
<path d="M1.21008 43.604C0.901035 43.6043 0.624986 43.4107 0.51985 43.1201C0.414715 42.8295 0.503061 42.5042 0.740752 42.3066L17.4754 28.4026C17.6765 28.2317 17.954 28.1819 18.2019 28.2724C18.4499 28.363 18.6301 28.5797 18.6737 28.8401C18.7173 29.1004 18.6177 29.3641 18.4128 29.5305L1.67817 43.4345C1.54678 43.544 1.38114 43.604 1.21008 43.604Z" fill="#B97C3B"/>
<path d="M42.789 43.604C42.618 43.6041 42.4525 43.5441 42.3213 43.4346L25.5867 29.5306C25.3818 29.3641 25.2821 29.1005 25.3258 28.8401C25.3694 28.5798 25.5496 28.363 25.7976 28.2725C26.0455 28.182 26.323 28.2317 26.5241 28.4027L43.2583 42.3067C43.496 42.5042 43.5843 42.8296 43.4792 43.1202C43.3741 43.4108 43.098 43.6042 42.789 43.604Z" fill="#B97C3B"/>
<path d="M36.6668 20.8853C36.2618 20.8853 35.9334 20.557 35.9334 20.152V5.13904C35.9313 5.15444 35.9019 5.13369 35.8528 5.13332H8.14743C8.11502 5.13133 8.0832 5.14273 8.05943 5.16485L8.06676 20.152C8.06676 20.557 7.73844 20.8853 7.33343 20.8853C6.92842 20.8853 6.6001 20.557 6.6001 20.152V5.13332C6.62376 4.30164 7.31568 3.64579 8.14743 3.66665H35.8528C36.6845 3.64587 37.3764 4.30168 37.4001 5.13332V20.152C37.4001 20.557 37.0718 20.8853 36.6668 20.8853Z" fill="#B97C3B"/>
</g>
<defs>
<clipPath id="clip0_80_380">
<rect width="44" height="44" fill="white"/>
</clipPath>
</defs>
</svg>
