<?xml version="1.0" encoding="UTF-8"?>
<svg xmlns="http://www.w3.org/2000/svg" xmlns:xlink="http://www.w3.org/1999/xlink" width="17px" height="17px" viewBox="0 0 17 17" version="1.1">
<g id="surface1">
<path style=" stroke:none;fill-rule:nonzero;fill:rgb(72.54902%,48.627451%,23.137255%);fill-opacity:1;" d="M 3.464844 11.300781 C 5.140625 13.304688 7.160156 14.882812 9.464844 16 C 10.339844 16.414062 11.511719 16.910156 12.820312 16.992188 C 12.902344 16.996094 12.980469 17 13.058594 17 C 13.9375 17 14.640625 16.695312 15.214844 16.074219 C 15.21875 16.070312 15.226562 16.0625 15.230469 16.054688 C 15.433594 15.808594 15.667969 15.585938 15.910156 15.351562 C 16.074219 15.191406 16.242188 15.027344 16.40625 14.859375 C 17.15625 14.078125 17.15625 13.082031 16.398438 12.324219 L 14.28125 10.207031 C 13.921875 9.835938 13.492188 9.636719 13.042969 9.636719 C 12.589844 9.636719 12.15625 9.835938 11.789062 10.203125 L 10.527344 11.464844 C 10.410156 11.398438 10.289062 11.339844 10.179688 11.28125 C 10.039062 11.210938 9.90625 11.144531 9.789062 11.070312 C 8.640625 10.34375 7.597656 9.390625 6.601562 8.167969 C 6.097656 7.53125 5.761719 6.996094 5.523438 6.449219 C 5.855469 6.152344 6.164062 5.835938 6.464844 5.53125 C 6.570312 5.421875 6.679688 5.3125 6.789062 5.203125 C 7.167969 4.824219 7.375 4.382812 7.375 3.933594 C 7.375 3.488281 7.171875 3.046875 6.789062 2.667969 L 5.738281 1.617188 C 5.617188 1.492188 5.5 1.375 5.378906 1.25 C 5.148438 1.011719 4.90625 0.765625 4.664062 0.542969 C 4.300781 0.1875 3.875 0 3.425781 0 C 2.976562 0 2.546875 0.1875 2.171875 0.546875 L 0.855469 1.863281 C 0.375 2.34375 0.105469 2.921875 0.046875 3.597656 C -0.0195312 4.4375 0.136719 5.332031 0.535156 6.414062 C 1.152344 8.085938 2.082031 9.640625 3.464844 11.300781 Z M 0.90625 3.671875 C 0.949219 3.203125 1.128906 2.8125 1.464844 2.472656 L 2.777344 1.164062 C 2.980469 0.964844 3.207031 0.863281 3.425781 0.863281 C 3.640625 0.863281 3.859375 0.964844 4.058594 1.167969 C 4.296875 1.386719 4.515625 1.617188 4.757812 1.859375 C 4.875 1.984375 5 2.105469 5.125 2.234375 L 6.171875 3.28125 C 6.390625 3.5 6.503906 3.722656 6.503906 3.941406 C 6.503906 4.160156 6.390625 4.382812 6.171875 4.601562 C 6.0625 4.710938 5.953125 4.824219 5.84375 4.929688 C 5.519531 5.261719 5.210938 5.578125 4.875 5.875 C 4.867188 5.882812 4.863281 5.886719 4.855469 5.894531 C 4.5625 6.1875 4.609375 6.464844 4.679688 6.675781 C 4.683594 6.6875 4.6875 6.691406 4.691406 6.703125 C 4.960938 7.355469 5.339844 7.976562 5.925781 8.714844 C 6.984375 10.019531 8.097656 11.027344 9.320312 11.808594 C 9.472656 11.90625 9.636719 11.984375 9.789062 12.0625 C 9.929688 12.132812 10.058594 12.199219 10.175781 12.273438 C 10.1875 12.28125 10.199219 12.285156 10.214844 12.292969 C 10.328125 12.355469 10.441406 12.382812 10.554688 12.382812 C 10.835938 12.382812 11.019531 12.203125 11.078125 12.140625 L 12.398438 10.824219 C 12.601562 10.621094 12.824219 10.511719 13.042969 10.511719 C 13.308594 10.511719 13.527344 10.675781 13.664062 10.824219 L 15.789062 12.945312 C 16.210938 13.367188 16.207031 13.824219 15.777344 14.273438 C 15.632812 14.433594 15.476562 14.582031 15.308594 14.742188 C 15.0625 14.980469 14.808594 15.226562 14.574219 15.507812 C 14.167969 15.941406 13.6875 16.148438 13.0625 16.148438 C 13.003906 16.148438 12.941406 16.144531 12.878906 16.140625 C 11.722656 16.066406 10.648438 15.617188 9.84375 15.230469 C 7.652344 14.171875 5.730469 12.667969 4.132812 10.757812 C 2.820312 9.175781 1.933594 7.703125 1.351562 6.125 C 0.988281 5.15625 0.851562 4.378906 0.90625 3.671875 Z M 0.90625 3.671875 "/>
</g>
</svg>
