<svg width="50" height="60" viewBox="0 0 50 60" fill="none" xmlns="http://www.w3.org/2000/svg">
<path d="M30.9367 49.4382C30.9367 50.4221 30.0757 51.283 29.0918 51.283H4.86308C3.87917 51.283 3.01825 50.4221 3.01825 49.4382V4.79331C3.01825 3.80941 3.87917 2.94849 4.86308 2.94849H11.3815C12.1194 2.94849 12.7343 3.44044 12.9803 4.05538C13.2263 4.79331 13.8412 5.16228 14.5792 5.16228H19.2527C19.9907 5.16228 20.6056 4.79331 20.9746 4.05538C21.2206 3.31745 21.9585 2.94849 22.5734 2.94849H29.0918C30.0757 2.94849 30.9367 3.80941 30.9367 4.79331V9.71286H33.6424V4.54734C33.6424 2.21055 31.6746 0.242737 29.3378 0.242737H4.6171C2.28032 0.242737 0.3125 2.21055 0.3125 4.54734V54.9727C0.3125 57.3094 2.28032 59.2773 4.6171 59.2773H29.3378C31.6746 59.2773 33.6424 57.3094 33.6424 54.9727V37.1393H30.9367V49.4382ZM17.0389 57.0635C16.055 57.0635 15.1941 56.2025 15.1941 55.2186C15.1941 54.2347 15.932 53.3738 17.0389 53.3738C18.0229 53.3738 18.8838 54.2347 18.8838 55.2186C18.7608 56.3255 18.0229 57.0635 17.0389 57.0635Z" fill="#B97C3B"/>
<path d="M19.1298 34.1795H18.9227L18.7762 34.326L12.2505 40.8518V23.4876C12.2505 17.4913 17.0692 12.6726 23.0654 12.6726H38.685C41.6233 12.6726 44.3259 13.8471 46.3257 15.8469C48.2097 17.7309 49.4999 20.436 49.4999 23.3646C49.4999 29.3609 44.6813 34.1795 38.685 34.1795H19.1298Z" stroke="#B97C3B"/>
<path d="M36.2162 25.0826L34.6708 24.9061C34.2996 24.8635 33.9346 24.9913 33.673 25.2529L32.5534 26.3725C30.8316 25.4963 29.42 24.0908 28.5439 22.3629L29.6695 21.2373C29.9311 20.9757 30.0589 20.6106 30.0163 20.2395L29.8399 18.7062C29.7669 18.0917 29.2497 17.6293 28.6291 17.6293H27.5765C26.889 17.6293 26.3171 18.2012 26.3597 18.8888C26.6821 24.0848 30.8377 28.2343 36.0276 28.5567C36.7151 28.5993 37.287 28.0274 37.287 27.3399V26.2873C37.2931 25.6728 36.8307 25.1556 36.2162 25.0826Z" fill="#B97C3B"/>
</svg>
