<svg width="17" height="18" viewBox="0 0 17 18" fill="none" xmlns="http://www.w3.org/2000/svg">
<path d="M8.21045 2.62551C9.31713 2.62551 10.2226 3.59565 10.2226 4.78138C10.2226 5.9671 9.31713 6.93725 8.21045 6.93725C7.10377 6.93725 6.1983 5.9671 6.1983 4.78138C6.1983 3.59565 7.10377 2.62551 8.21045 2.62551ZM8.21045 13.4049C10.9268 13.4049 14.0457 14.7954 14.2469 15.5607H2.17401C2.40541 14.7846 5.50411 13.4049 8.21045 13.4049ZM8.21045 0.469635C5.98703 0.469635 4.18616 2.39914 4.18616 4.78138C4.18616 7.16361 5.98703 9.09312 8.21045 9.09312C10.4339 9.09312 12.2347 7.16361 12.2347 4.78138C12.2347 2.39914 10.4339 0.469635 8.21045 0.469635ZM8.21045 11.249C5.52423 11.249 0.161865 12.6934 0.161865 15.5607V17.7166H16.259V15.5607C16.259 12.6934 10.8967 11.249 8.21045 11.249Z" fill="#B97C3B"/>
</svg>
