<svg width="17" height="17" viewBox="0 0 17 17" fill="none" xmlns="http://www.w3.org/2000/svg">
<path d="M6.89055 0.799805H6.89272V0.800751C8.75871 0.801292 10.4484 1.55815 11.6711 2.78114C12.8918 4.00237 13.648 5.69054 13.6492 7.55504H13.6501V7.5595V7.56491H13.6492C13.6485 8.31636 13.5252 9.03955 13.2984 9.71393C13.2604 9.82711 13.2206 9.93583 13.1798 10.0397V10.0406C12.9843 10.5356 12.7315 11.0034 12.4297 11.4344L16.3624 14.9691L16.3648 14.9713L16.386 14.991L16.3875 14.9925C16.6095 15.2038 16.7304 15.4869 16.7457 15.7741C16.7606 16.0581 16.6723 16.3485 16.4781 16.5815L16.4766 16.5837L16.453 16.6111L16.4482 16.6159L16.4285 16.6375L16.4263 16.6404C16.2147 16.8624 15.9322 16.983 15.6447 16.9982C15.3611 17.0132 15.0704 16.9251 14.8373 16.7307L14.8352 16.7292L14.8077 16.7055L14.8037 16.7023L10.7814 13.0871C10.6624 13.171 10.541 13.2506 10.4181 13.3258C10.2513 13.4279 10.0787 13.5241 9.90245 13.6118C8.99657 14.0638 7.97291 14.318 6.89069 14.318V14.3189H6.88853V14.318C5.02254 14.3174 3.33261 13.5606 2.1099 12.3376C0.888803 11.1164 0.133023 9.42792 0.131806 7.56396H0.130859V7.5595V7.55734H0.131806C0.132347 5.69135 0.889209 4.00142 2.1122 2.77871C3.33343 1.55815 5.02159 0.801968 6.88609 0.800751V0.799805H6.89055ZM6.89272 2.31569V2.31664H6.89055H6.88609V2.31569C5.44106 2.31664 4.13126 2.90393 3.18305 3.85173C2.23498 4.79953 1.64715 6.11068 1.64675 7.55747H1.64769V7.55964V7.5641H1.64675C1.64769 9.00913 2.23458 10.3183 3.18278 11.2667C4.13058 12.2149 5.44174 12.8028 6.88839 12.803V12.8021H6.89055H6.89502V12.803C8.34005 12.8021 9.64931 12.2151 10.5978 11.267C11.5459 10.3192 12.1337 9.00845 12.134 7.5618H12.1331V7.55964V7.55517H12.134C12.1331 6.11014 11.5457 4.80034 10.5981 3.85213C9.65025 2.90393 8.33951 2.3161 6.89272 2.31569Z" fill="white"/>
</svg>
